<?xml version="1.0" encoding="UTF-8"?> <!-- Creator: CorelDRAW 2017 --> <svg xmlns="http://www.w3.org/2000/svg" xmlns:xlink="http://www.w3.org/1999/xlink" xml:space="preserve" width="109.536mm" height="72.1387mm" style="shape-rendering:geometricPrecision; text-rendering:geometricPrecision; image-rendering:optimizeQuality; fill-rule:evenodd; clip-rule:evenodd" viewBox="0 0 2921.99 1924.37"> <defs> <style type="text/css"> <![CDATA[ .fil1 {fill:#FEFEFE;fill-rule:nonzero} .fil2 {fill:#D9DADA;fill-rule:nonzero} .fil0 {fill:#BDBBBA;fill-rule:nonzero} ]]> </style> </defs> <g id="Слой_x0020_1"> <metadata id="CorelCorpID_0Corel-Layer"></metadata> <path class="fil0" d="M763.86 563.79c-12.7,0 -24.5,7.15 -28.69,17.4 -9.5,22.74 -11.56,48.3 -12.14,73.88 7.22,-6.55 14.53,-12.88 21.87,-19.12 1.38,-15.71 4.19,-31.31 10.15,-45.61 2.74,-6.68 11.12,-11.53 19.94,-11.53 2.73,0 6.63,0.49 10,2.77 3.6,3.49 5.92,9.18 7.64,15.27 -2.4,-11.21 -5.68,-21.75 -12.78,-28.19 -5.51,-4.04 -11.72,-4.89 -16,-4.89z"></path> <path class="fil0" d="M1252.45 436.19c-104.63,8 -207.17,33.18 -300.76,73.63 93.36,-39.37 195.19,-63.49 299.39,-70.44 0.43,-1.06 0.93,-2.13 1.37,-3.19z"></path> <path class="fil0" d="M942.58 1289.57c0.7,0.09 1.4,0.23 2.08,0.42 2.61,0.72 5.34,1.09 8.09,1.09 6.2,0 12.35,-1.85 17.85,-4.93 -2.22,0.62 -4.47,1.04 -6.72,1.04 -1.91,0 -3.78,-0.25 -5.55,-0.74 -1.1,-0.3 -2.2,-0.53 -3.34,-0.69 -23.87,-3.27 -39.71,-31.48 -43.01,-57.55 -5.46,-47.95 -0.14,-81.44 16.67,-105.3 12.01,-16.54 30.2,-28.46 49.47,-41.09 3.56,-2.32 7.17,-4.71 10.8,-7.13 0.05,-8.38 0.11,-16.77 0.22,-25.16 -8.92,6.75 -18.2,12.83 -27.34,18.8 -20.01,13.11 -38.91,25.49 -51.95,43.45 -18.26,25.93 -24.15,61.54 -18.41,111.93 3.63,28.76 21.2,61.77 51.13,65.86z"></path> <path class="fil0" d="M965.46 444.08c9.06,0 17.97,-1.29 26.42,-3.8 25.4,-7.41 41.28,-27.46 51.02,-41.9 4.9,-7.25 5.67,-16.69 2.02,-24.63 -3.64,-7.95 -11.29,-13.52 -19.98,-14.55 -2.78,-0.33 -5.61,-0.63 -8.54,-0.94 -16.19,-1.7 -31.48,-3.31 -40.14,-11.42 -11.91,-11.07 -11.51,-32.84 -9.1,-48.96 5.32,-31.02 28.16,-60.27 61.13,-78.3 35.48,-19.62 78.33,-29.99 123.93,-29.99 17.05,0 34.43,1.45 51.65,4.31 54.85,9.04 107.18,41.1 141.84,86.42 0.83,-1.04 1.59,-2.08 2.43,-3.12 -36.03,-51.74 -92.76,-88.13 -153.87,-98.2 -17.71,-2.94 -35.6,-4.43 -53.18,-4.43 -47.18,0 -91.62,10.78 -128.51,31.18 -35.46,19.38 -60.07,51.13 -65.88,84.97 -4.02,26.91 -0.01,46.37 11.99,57.51 10.94,10.25 27.77,12.02 45.58,13.89 2.84,0.29 5.66,0.59 8.43,0.92 5.47,0.65 10.19,4.09 12.49,9.09 2.3,5 1.82,10.84 -1.26,15.39 -8.92,13.22 -23.38,31.55 -45.84,38.1 -7.59,2.26 -15.61,3.43 -23.75,3.43 -38.79,0 -76.53,-26.68 -89.73,-63.44 -0.75,-2.12 -1.43,-4.26 -2.05,-6.43 1.12,5.18 2.51,10.26 4.27,15.19 14.51,40.39 56,69.7 98.63,69.7z"></path> <path class="fil0" d="M1376.71 493.81c3.89,0.21 19.31,0.97 26.06,1.32 0.25,-4.78 0.45,-9.58 0.53,-14.41 -8.14,-0.47 -16.29,-0.87 -24.26,-1.27 -6.73,-0.33 -13.46,-0.67 -20.18,-1.05 -25.66,76.62 -40.76,157.26 -45.01,240.33 8.2,-8.64 15.82,-17.93 22.99,-27.71 5.96,-67.83 19.29,-134 39.87,-197.22z"></path> <path class="fil0" d="M2073.83 70.05c-44.6,-13.77 -93.23,-20.75 -144.57,-20.75 -43.51,0 -89.1,5.01 -135.51,14.87 -137.47,30.44 -264.12,119.41 -348.68,244.65 19.2,39.48 30.55,85.13 33.81,136 30.47,3.36 61.11,7.21 90.87,10.93 53.25,6.68 108.31,13.59 162.53,17.74 38.67,2.66 80.23,5.14 121.36,5.14 0.01,0 0.01,0 0.02,0 67.92,0 123.05,-6.67 173.51,-21 14.67,-3.99 33.05,-9.96 52.47,-18.55 -16.23,6.72 -31.48,11.62 -43.93,15 -49.6,14.09 -103.91,20.66 -170.94,20.66 -40.8,0 -82.13,-2.46 -120.63,-5.11 -53.98,-4.14 -108.9,-11.02 -162.24,-17.71 -27.14,-3.41 -55.13,-6.92 -83.03,-10.07 -3.8,-46.79 -14.48,-89.32 -31.81,-126.62 83.12,-120.79 206.7,-206.76 339.78,-236.24 45.77,-9.73 90.7,-14.66 133.56,-14.66 50.39,0 98.09,6.84 141.77,20.34 58.08,17.86 101.78,52.81 119.88,95.79 3.04,7.39 5.53,14.99 7.59,22.73 -2.42,-10.91 -5.73,-21.59 -9.98,-31.89 -19.2,-45.61 -65.08,-82.55 -125.85,-101.24z"></path> <path class="fil0" d="M849.16 953.34c-30.77,0 -58.15,-19.04 -66.42,-45.65 0.31,1.65 0.65,3.28 1.05,4.92 8.14,32.32 40.3,55.76 76.5,55.76 23.78,0 44.84,-10.44 57.53,-28.31 15.3,-19.62 17.4,-45.57 6.24,-77.12l-0.42 -1.09c-0.46,-1.12 -0.56,-2.64 -0.29,-4.56 19.78,4.17 41.03,7.64 64.44,10.59 -0.39,-4.65 -0.87,-9.3 -1.49,-13.92 -30.19,-3.54 -56.39,-7.88 -80.77,-13.38 -2.65,7.16 -4.03,13.78 -1.78,19.28 0.09,0.23 0.18,0.47 0.26,0.71 10.01,28.29 8.41,51.2 -4.78,68.11 -11.14,15.68 -29.36,24.66 -50.07,24.66z"></path> <path class="fil0" d="M1377.91 822.39c-5.72,0 -11.27,1.03 -16.49,3.05 -35.65,14.74 -46.11,61.39 -48.53,98.09 -0.68,58.67 -0.57,118.36 -0.48,176.08 0.07,40.98 0.14,83.37 -0.07,125.07 -0.69,20.95 6.81,42.53 20.57,59.67 8.14,9.93 21.57,15.93 35.83,15.93 0,0 0,0 0.01,0 8.11,0 15.74,-1.97 22.24,-5.63 -3.49,1.08 -7.2,1.73 -11.12,1.73 -11.45,0 -22.11,-4.66 -28.45,-12.39 -12.36,-15.41 -19.11,-34.88 -18.48,-53.7 0.21,-41.26 0.14,-83.19 0.07,-123.73l-0.01 -2c-0.09,-57.51 -0.19,-116.96 0.46,-174.85 2.24,-33.92 11.47,-77.05 42.51,-89.89 4.11,-1.6 8.51,-2.4 13.06,-2.4 10.54,0 20.3,4.5 26.16,12.12 11.54,14.64 18.71,32.21 23.66,51.11 -5.22,-22.94 -13.19,-44.55 -27.36,-62.54 -7.61,-9.91 -20.13,-15.73 -33.59,-15.73z"></path> <path class="fil0" d="M1123.6 1293.19c3.6,3.89 10.45,6.42 17.43,6.42 0.83,0 1.65,-0.04 2.46,-0.1 0.47,-0.05 0.94,-0.07 1.42,-0.07 0.9,0 1.81,0.09 2.69,0.23 0.19,-0.03 0.38,-0.05 0.57,-0.06 3.6,-0.31 7.18,-0.34 10.84,-0.34l1.34 0c9.36,0 14.31,-0.42 16.98,-2.84 0.19,-0.35 0.27,-0.81 0.43,-1.2 -1.69,0.09 -3.76,0.13 -6.28,0.13l-1.35 0c-3.73,0 -7.39,0.03 -11.2,0.33 -0.97,-0.11 -1.94,-0.17 -2.92,-0.17 -0.75,0 -1.52,0.04 -2.3,0.1 -0.52,0.06 -1.05,0.07 -1.58,0.07 -4.78,0 -8.97,-1.73 -10.63,-3.51 0,0 -0.05,-0.2 -0.01,-0.69 0.07,-0.76 0.09,-1.53 0.09,-2.3 -0.78,-68.3 -0.67,-137.68 -0.55,-204.76 0.09,-52.78 0.17,-107.36 -0.17,-161.35 -0.3,-20.67 -2.71,-38.94 -7.31,-55.45 15.42,-2.14 31.04,-5.09 47.21,-8.88 0,-6.02 0.01,-12.04 0.01,-18.05 -24.59,6.36 -48.01,10.79 -70.81,13.4 6.56,18.31 9.94,39.32 10.29,63.55 0.35,53.83 0.25,108.4 0.17,161.18 -0.11,67.17 -0.23,136.64 0.55,204.89 0.01,0.48 -0.01,0.95 -0.05,1.43 -0.25,3.27 0.55,5.75 2.64,8.01z"></path> <path class="fil0" d="M905.22 577.08c6.47,15.6 8.27,33.3 4.59,49.24 -3.96,17.16 -14.21,30.97 -28.87,38.89 -8.33,4.22 -16.86,6.24 -25.75,6.24 -21.48,0 -41.24,-11.91 -52.14,-29.56 -29.9,22.8 -56.92,46.59 -80.57,70.95l0 33.04c47.76,15.44 91.67,29.26 136.47,40.97 34.02,-13.63 70.39,-20.82 105.52,-20.82 7.35,0 14.75,0.31 21.99,0.93 40.39,2.45 76.97,19.63 101.41,47.5 32.19,-2.26 63.3,-7.68 92.75,-16.16 0,-0.41 0.01,-0.82 0.02,-1.22 -24.86,6.58 -50.95,11.02 -77.75,13.17 -25.96,-27.56 -63.84,-44.69 -104.51,-47.15 -7.51,-0.64 -15.18,-0.96 -22.78,-0.96 -35.23,0 -71.86,7.03 -106.12,20.34 -39.36,-10.38 -78.08,-22.33 -126.41,-37.91l0 -22.3c20.58,-20.92 43.8,-41.53 69.18,-61.36 13.43,15.98 33.35,25.58 54.06,25.58 10.39,0 20.49,-2.44 30.26,-7.38 17.07,-9.23 29,-25.25 33.59,-45.09 3.46,-14.99 2.71,-31.29 -2.07,-46.67 91.81,-45.66 195.03,-75.92 300.13,-88.08 1.91,-5.67 3.87,-11.3 5.89,-16.91 -115.69,11.1 -228.59,43.6 -328.89,94.74z"></path> <path class="fil0" d="M1163.59 1690.53c39.44,21.29 84.73,32.53 130.98,32.53 30.08,0 59.48,-4.67 87.24,-13.83 30.52,-9.49 46.18,-32.74 39.88,-59.22 -1.75,-7.34 -6.63,-13.46 -13.38,-16.79 -3.46,-1.71 -7.33,-2.62 -11.18,-2.62 -3.56,0 -7.02,0.74 -10.28,2.19 -1.58,0.71 -3.08,1.45 -4.57,2.2 1.24,-0.3 2.48,-0.49 3.72,-0.49 2.4,0 4.79,0.55 6.99,1.64 4.21,2.07 7.27,5.92 8.36,10.49 5.14,21.58 -7.7,39.96 -33.48,47.99 -26.87,8.86 -55.36,13.41 -84.43,13.41 -44.68,0 -88.42,-10.86 -126.48,-31.4 -30.94,-17.49 -52.71,-43.65 -61.13,-72.28 7.18,34.2 31.73,65.79 67.77,86.17z"></path> <path class="fil0" d="M1599.2 1468.24c-56.53,-42.62 -130.54,-64.23 -219.99,-64.23 -11.08,0 -22.62,0.35 -34.49,1.06 -54.81,4.33 -101,14.82 -139.7,31.71 36.22,-14.66 79.04,-23.86 129.32,-27.84 11.57,-0.69 22.82,-1.04 33.75,-1.04 87.33,0 159.43,20.97 214.29,62.33 50.66,37.86 78.87,105.28 71.91,171.8 -3.43,69.7 -41.09,137.61 -100.8,181.72 -65.85,49.36 -153.87,77.76 -261.52,84.36 -14.53,0.81 -29.22,1.21 -43.74,1.21 -176.42,0 -347.51,-58.04 -481.74,-163.44 -108.32,-85.4 -187.43,-200.3 -226.19,-327.21 -12.04,16.96 -29.51,32.89 -52.3,47.63 -35.35,22.25 -77.64,33.46 -125.88,33.47 -27.32,0 -56.21,-3.63 -85.85,-10.8 -94.21,-21.59 -179.86,-84.34 -228.95,-167.83 -18.37,-30.68 -32.46,-64.49 -42.11,-100.42 9.87,39.73 24.92,77.11 45.09,110.78 50.38,85.7 138.23,150.09 234.88,172.24 30.39,7.33 60.02,11.06 88.08,11.06 50.05,-0.01 94.1,-11.76 131.02,-34.99 17.38,-11.25 31.95,-23.31 43.5,-36.01 40.97,121.75 120.01,233.1 224,315.09 135.89,106.7 309.06,165.47 487.6,165.47 14.7,0 29.59,-0.41 44.32,-1.24 109.52,-6.71 199.22,-35.72 266.56,-86.19 61.95,-45.77 101.06,-116.37 104.59,-188.35 7.3,-69.76 -22.4,-140.56 -75.62,-180.35z"></path> <path class="fil0" d="M431.26 687.36c6.47,0 12.91,0.1 19.34,0.31 50.35,1.74 99.59,11.07 139.95,20.35 0,-2.2 0.02,-4.4 0.05,-6.6 -48.85,-10.65 -90.01,-16.3 -128.56,-17.64 -6.54,-0.22 -13.08,-0.32 -19.64,-0.32 -58.87,0 -136.78,8.41 -213.1,41.94 72.53,-30.29 146.01,-38.04 201.97,-38.04z"></path> <path class="fil0" d="M1601.62 1572.1c1.25,3.44 2.36,6.9 3.36,10.4 -1.5,-6.47 -3.3,-12.9 -5.59,-19.2 -14.29,-38.9 -49.66,-71.64 -97,-89.78 -42.56,-16.32 -87.4,-24.59 -133.28,-24.59 -34.24,0 -67.86,4.71 -99.95,14 -44.03,13.3 -74.77,30.21 -96.55,53.18 -20.82,21.72 -29.44,51.62 -22.06,76.21 0.07,0.22 0.13,0.44 0.19,0.66 6.4,25.21 27.73,47.49 58.55,61.14 22.19,9.25 46.96,14.22 71.3,14.22 19.5,0 38.37,-3.1 56.07,-9.2 2.58,-0.86 5.1,-2 7.61,-3.26 -16.58,5.67 -34.25,8.55 -52.55,8.55 -23.09,0 -46.49,-4.66 -67.47,-13.4 -28.13,-12.47 -47.52,-32.45 -53.21,-54.84l-0.29 -1.04c-6.43,-21.39 1.36,-47.66 19.86,-66.98 20.61,-21.73 49.98,-37.82 92.33,-50.61 31.22,-9.04 63.96,-13.62 97.32,-13.62 44.72,0 88.42,8.06 129.88,23.97 44.8,17.15 78.15,47.85 91.49,84.16z"></path> <path class="fil0" d="M2308.27 219.88c-4.76,-49.07 -31.17,-97.31 -72.39,-132.3 -51.86,-44.8 -121.07,-72.12 -211.82,-83.54 -26.17,-2.68 -52.93,-4.04 -79.57,-4.04 -60.08,0 -120.74,6.81 -180.27,20.26 -43.82,9.76 -86.78,23.76 -128.18,41.49 38.51,-15.97 78.37,-28.75 119.1,-37.81 58.87,-13.3 118.85,-20.04 178.22,-20.04 26.32,0 52.75,1.34 78.6,3.99 88.75,11.18 156.21,37.75 206.6,81.29 39.38,33.44 64.63,79.42 69.16,126.06 5.25,63.75 -14.08,127.48 -53.03,175.08 -30.1,37.77 -74.32,68.87 -127.78,89.79 -63.42,25.2 -136.86,38.04 -231.02,40.37 -7.81,0.15 -15.54,0.23 -23.27,0.23 -97.75,0 -195.9,-11.93 -290.82,-23.48 -27.02,-3.28 -54.8,-6.66 -82.36,-9.74 -3.25,82.02 -29.32,157.27 -74.23,213.44 -25.4,32.42 -57.37,61.06 -92.79,83.19 0,2.59 -0.01,5.18 -0.01,7.76 12.14,-9.75 25.21,-16.68 39.1,-20.67 13.02,-3.49 26.28,-5.21 39.73,-5.21 42.02,0 82.77,16.62 111.8,45.6 44.49,43.43 71.68,108.33 80.67,192.76 10.27,105.62 -12.36,202.61 -63.69,273.23 -35.25,49.59 -91.44,80.48 -146.54,80.48 -5.83,0 -11.72,-0.34 -17.49,-1.01 -15.34,-1.65 -30.12,-7.46 -44.15,-17.32 -0.73,2.53 -2.09,4.86 -3.97,6.76 -2.96,2.99 -6.99,4.65 -11.19,4.65l-97.55 -0.03 -48.76 0.03c-1.17,0 -2.3,-0.12 -3.4,-0.37 -1.09,0.25 -2.23,0.37 -3.4,0.37 -0.01,0 -21.07,-0.03 -31.58,-0.03l-56.21 0.02c-17.18,0 -34.34,-0.02 -51.52,-0.09 -4.23,-0.02 -8.28,-1.74 -11.24,-4.79 -2.5,-2.57 -4.04,-5.91 -4.39,-9.44 -22.3,13.8 -49.22,21.34 -77.74,21.34 -49.44,0.01 -95.34,-21.66 -122.77,-57.96 -12.44,-15.88 -20.98,-34.18 -25.99,-53.41 3.65,17.62 10.13,34.65 19.51,50.13 -2.61,-0.86 -5.43,-1.29 -8.39,-1.29 -0.01,0 -0.02,0 -0.03,0 -2.72,0.05 -5.45,0.1 -8.19,0.1 -6.95,0 -14.12,-0.27 -20.4,-1.98 -1.98,-9.71 -1.82,-20.84 -1.63,-32.52 0.08,-5.06 0.14,-10.11 0.08,-14.71 0.03,-79 0.03,-158.01 0.03,-237 0,-67.52 0,-135.04 0.02,-202.56l5.22 1.68c17.91,5.75 36.31,11.62 54.95,17.1 2.91,-3.37 5.99,-6.58 9.26,-9.58 -24.59,-6.74 -48.79,-14.51 -72.44,-22.1 -5.86,-1.89 -11.72,-3.76 -17.59,-5.63 -0.02,71.83 -0.02,143.67 -0.02,215.52 0,79 0,158 -0.03,236.99 0.08,4.67 0,9.62 -0.07,14.58 -0.22,14.26 -0.42,27.83 3.16,39.94 8.57,3.61 18.61,4.17 28.34,4.17 2.79,0 5.6,-0.04 8.37,-0.09 0.1,-0.01 0.21,-0.01 0.3,-0.01 4.15,0 8.14,1.64 11.09,4.55 3.03,3 4.72,7.1 4.69,11.36 -0.06,6.64 -0.06,13.26 -0.06,19.95 0,8.72 -7.06,15.77 -15.77,15.77l-131.46 -0.03c0,0 -65.76,0.03 -65.77,0.03 -0.26,0 -0.53,-0.01 -0.79,-0.02 25.76,107.95 78.62,205.89 152.22,280.59 97.65,100.28 238.37,168.86 396.31,193.16 44.89,6.81 89.05,10.27 131.22,10.27 57.96,0 113.46,-6.52 164.97,-19.39 26.99,-6.64 51.13,-14.66 72.64,-24.11 -19.15,7.89 -40.35,14.72 -63.81,20.5 -50.76,12.66 -105.49,19.09 -162.67,19.09 -41.7,0 -85.37,-3.41 -129.79,-10.15 -155.92,-23.99 -294.76,-91.6 -391,-190.43 -69.75,-70.8 -120.37,-162.04 -146.85,-264.48l54.44 -0.02 131.47 0.03c13.92,0 25.24,-11.33 25.24,-25.25 0,-6.66 0,-13.26 0.06,-19.87 0,-0.25 0,-0.52 0,-0.77 29.64,33.32 74.8,52.9 123.06,52.89 26.17,0 51.24,-5.97 73.17,-17.34 0.66,0.89 1.39,1.75 2.17,2.56 4.69,4.84 11.25,7.62 17.99,7.66 17.18,0.09 34.37,0.1 51.56,0.1l56.21 -0.02 31.58 0.03c1.13,0 2.27,-0.09 3.4,-0.24 1.13,0.15 2.27,0.24 3.4,0.24l48.75 -0.03 97.56 0.03c6.67,0 13.19,-2.72 17.9,-7.46 0.09,-0.08 0.17,-0.17 0.25,-0.25 12.84,7.52 26.29,12.07 40.06,13.54 6.12,0.71 12.37,1.08 18.6,1.08 58.11,0 117.22,-32.37 154.19,-84.38 52.7,-72.49 75.95,-171.83 65.45,-279.8 -9.23,-86.68 -37.31,-153.48 -83.4,-198.46 -30.79,-30.73 -73.96,-48.36 -118.48,-48.36 -9.67,0 -19.31,0.85 -28.83,2.56 18.54,-15.87 35.49,-33.48 50.2,-52.25 44,-55.06 70.73,-128.9 75.76,-208.83 24.7,2.81 49.82,5.88 72.38,8.62 95.17,11.57 193.58,23.54 291.87,23.54 7.78,0 15.58,-0.07 23.51,-0.23 95.32,-2.36 169.77,-15.41 234.24,-41.02 54.99,-21.52 100.54,-53.59 131.66,-92.61 40.48,-49.48 60.58,-115.76 55.11,-181.98z"></path> <path class="fil0" d="M146.54 1343.01c56.1,49.93 135.18,78.51 217.08,78.52l0.01 0c12,0 24.1,-0.62 35.99,-1.82 20.23,-2.85 44.49,-8.39 68.22,-18.91 -20.51,8.18 -41,12.65 -58.04,15.05 -11.56,1.19 -23.35,1.78 -35.04,1.78 -79.61,0 -156.44,-27.74 -210.85,-76.19 -60.77,-53.05 -97.65,-136.89 -101.2,-230.19 -5.07,-91.03 21.43,-178.05 72.76,-238.85 56.51,-68.73 148.09,-113.91 251.34,-123.95 16.1,-1.73 32.92,-2.61 50.03,-2.61 46.29,0 95.44,6.12 153.95,19.15 -0.09,-4.25 -0.22,-8.49 -0.21,-12.81 -63.08,-14.57 -115.75,-21.37 -164.88,-21.37 -17.43,0 -34.6,0.89 -51.04,2.66 -105.69,10.28 -199.54,56.69 -257.63,127.35 -52.86,62.59 -80.11,151.97 -74.91,245.38 3.65,95.84 41.71,182.05 104.43,236.81z"></path> <path class="fil0" d="M554.78 1301.99c2.28,-1.59 4.97,-2.57 7.8,-2.79 1.81,-0.14 3.7,-0.19 5.62,-0.19 1.85,0 3.74,0.05 5.64,0.1 1.65,0.05 3.31,0.09 4.95,0.09 7.47,0 8.34,-1.2 8.71,-1.7 0.45,-0.62 0.74,-1.45 1.07,-2.23 -1.11,-0.01 -2.22,-0.02 -3.33,-0.05 -2,-0.06 -3.98,-0.11 -5.92,-0.11 -1.94,0 -3.84,0.06 -5.68,0.18 -0.12,-0.82 -0.23,-1.64 -0.34,-2.45 -15.62,-107.89 -9.46,-213.33 17.58,-308.64 -0,-22.66 -0.02,-45.36 -0.04,-68.06 -43.67,110.43 -57.2,240.1 -38.04,372.48 0.61,4.47 1.27,8.92 1.97,13.37z"></path> <path class="fil0" d="M1009.59 150c40.65,-14.19 83.67,-21.38 127.86,-21.38 99.33,0 190.4,36.46 252.77,100.59 3.06,-3.19 6.24,-6.28 9.36,-9.41 -63.65,-60.54 -154.37,-95.08 -251,-95.08 -45.25,0 -89.32,7.37 -130.98,21.9 -7.7,2.7 -15.81,5.86 -24.09,9.47 5.5,-2.23 10.9,-4.28 16.08,-6.09z"></path> <path class="fil0" d="M733.35 514.71c12.37,-1.65 24.72,-2.49 36.66,-2.49 43.29,0 80.78,11.07 109.23,32.1 3.73,-2.01 7.54,-3.92 11.31,-5.86 -29.32,-19.72 -66.98,-30.13 -109.41,-30.13 -12.33,0 -25.09,0.87 -37.87,2.56 -18.13,2.34 -35.51,7.42 -51.52,14.71 13.13,-5.25 27.11,-9.01 41.6,-10.88z"></path> <path class="fil0" d="M1395.36 393.6c-7.14,14.19 -14.21,28.61 -20.66,43.2 9.39,0.42 18.34,0.88 27.14,1.41 -0.14,-1.52 -0.39,-3.05 -0.56,-4.57 -0.35,-0.01 -0.7,-0.03 -1.06,-0.05 0.28,-0.6 0.57,-1.21 0.85,-1.8 -1.4,-12.67 -3.23,-25.4 -5.71,-38.19z"></path> <path class="fil0" d="M1742.7 618.51c-17.78,-20.38 -42.39,-32.05 -67.5,-32.05 -6.64,0 -13.26,0.84 -19.08,2.34 -23.99,5.26 -45.45,20.98 -58.86,43.16 -5.08,8.39 -8.72,17.38 -10.95,26.57 2,-7.18 4.96,-14.21 8.96,-20.82 11.83,-19.55 30.74,-33.42 51.9,-38.06 5.13,-1.33 10.96,-2.06 16.82,-2.06 22.14,0 43.84,10.3 59.52,28.26 15.13,17.33 22.26,39.35 19.63,60.55 -1.89,41.91 -36.41,77.17 -75.72,77.17 -0.01,0 -0.01,0 -0.01,0 -1.2,0 -2.39,-0.03 -3.6,-0.09 -1.1,0.05 -2.2,0.07 -3.29,0.07 -32.51,0 -62.91,-24.42 -72.8,-56.99 10.04,38.68 45.51,68.11 83.54,68.11 1.24,0 2.49,-0.03 3.74,-0.09 1.36,0.07 2.71,0.1 4.07,0.1l0 0c44.59,0 83.74,-39.98 85.88,-87.52 2.98,-24.05 -5.1,-49.03 -22.27,-68.67z"></path> <path class="fil0" d="M1844.73 953.28c-21.67,0 -42.05,-9.36 -54.53,-25.05 -5.45,-6.63 -9.13,-13.95 -11.47,-21.59 2.17,11.73 6.98,23.05 15.19,33.04 14.26,17.93 37.41,28.63 61.94,28.63 28.55,0 52.52,-14.14 64.15,-37.81 12.24,-21.89 6.74,-42.96 2.73,-58.36 -2.94,-11.27 -4.12,-17 -2.29,-20.82 0.39,-0.79 0.74,-1.61 1.01,-2.38 4.33,-12.05 18.35,-16.35 30.04,-16.35 7.13,0 14.12,1.57 19.73,4.42 3.58,2.24 7.83,6.36 10.99,16.19 -3.09,-14.97 -8.7,-24.66 -17.47,-30 -6.98,-3.63 -15.63,-5.64 -24.38,-5.64 -14.9,0 -32.96,5.95 -38.96,22.61 -0.18,0.51 -0.39,1.01 -0.62,1.49 -3.37,7.01 -1.56,14.94 1.66,27.3 3.83,14.7 8.58,32.95 -1.96,51.57 -9.97,20.52 -30.76,32.76 -55.77,32.76z"></path> <path class="fil0" d="M1938.6 1289.52c0.71,0.09 1.42,0.23 2.11,0.43 2.65,0.75 5.42,1.13 8.23,1.13 6.21,0 12.36,-1.85 17.85,-4.93 -2.21,0.62 -4.47,1.02 -6.73,1.02 -1.95,0 -3.86,-0.25 -5.65,-0.76 -1.11,-0.32 -2.25,-0.55 -3.4,-0.71 -23.78,-3.29 -39.58,-31.49 -42.88,-57.53 -5.41,-48 -0.09,-81.49 16.65,-105.25 12.05,-16.56 30.27,-28.48 49.66,-41.19 3.49,-2.29 7.05,-4.64 10.61,-7.02 0.05,-8.38 0.12,-16.77 0.24,-25.16 -8.91,6.74 -18.17,12.8 -27.28,18.77 -20.03,13.12 -38.94,25.51 -52.01,43.47 -18.19,25.82 -24.08,61.44 -18.4,111.88 3.63,28.71 21.15,61.71 50.99,65.84z"></path> <path class="fil0" d="M2155.94 1295.81c-2.88,-0.43 -5.86,-0.71 -8.89,-0.97 -2.76,-0.25 -6.79,-0.6 -8.45,-1.11 -1.06,-2.03 -1.2,-10.08 -1.25,-13.55 -0.04,-2 -0.07,-3.97 -0.13,-5.58 -0.04,-44.3 -0.02,-88.61 0,-132.92l0 -3.41c0.03,-70.43 0.06,-143.26 -0.16,-214.72 0.09,-32.13 -6.79,-91.45 -53.79,-127.78 -28.42,-22.34 -65.43,-33.66 -110.01,-33.66 -15.23,0 -31.8,1.36 -49.51,4.1 -24.31,4.55 -45.55,10.88 -63.97,19.07 16.02,-6.42 34.16,-11.51 54.58,-15.33 17.12,-2.64 33.04,-3.94 47.78,-3.94 42.4,0 77.44,10.64 104.16,31.64 43.83,33.89 50.25,89.93 50.17,120.31 0.24,72.66 0.2,146.63 0.17,218.16 -0.03,44.3 -0.05,88.62 0,132.93 0.06,1.86 0.09,3.78 0.12,5.73 0.17,10.04 0.54,16.88 4.16,20.23 0.16,0.14 0.32,0.29 0.47,0.45 2.23,2.23 7.82,2.72 13.74,3.25 2.8,0.24 5.59,0.49 8.28,0.89 8.18,1.21 14.04,8.54 13.41,16.79 -0.49,6.59 -0.93,13.23 -1.32,19.87 -0.47,8.35 -7.39,14.87 -15.74,14.87 -0.01,0 -21.04,-0.03 -31.54,-0.03l-56.27 0.02c-17.17,0 -34.34,-0.02 -51.51,-0.09 -4.24,-0.02 -8.28,-1.74 -11.24,-4.79 -2.5,-2.58 -4.04,-5.91 -4.39,-9.45 -22.31,13.8 -49.24,21.35 -77.76,21.35 -49.44,0.01 -95.32,-21.66 -122.75,-57.96 -11.36,-14.49 -19.59,-30.97 -24.74,-48.35 5.17,21.48 14.47,41.96 28.33,59.63 29.21,38.65 77.91,61.72 130.27,61.72l0.02 0c26.17,0 51.24,-5.97 73.19,-17.35 0.66,0.9 1.38,1.76 2.17,2.56 4.69,4.85 11.25,7.63 17.99,7.67 17.18,0.09 34.37,0.1 51.55,0.1l56.27 -0.02 31.54 0.03c13.36,0 24.43,-10.45 25.19,-23.8 0.39,-6.58 0.81,-13.17 1.31,-19.69 1,-13.14 -8.43,-24.94 -21.44,-26.87z"></path> <path class="fil0" d="M2806.83 1470.21c-33.69,-24.44 -77.56,-37.85 -123.62,-37.85 -13.87,0 -27.84,1.2 -41.51,3.58 -38.93,8.57 -63.61,23.1 -75.46,44.43 -7.2,12.23 -9.46,27.65 -6.11,40.61 1.69,6.52 5.68,15.46 15.1,20.99 0.19,0.11 0.38,0.23 0.56,0.34 2.95,1.9 6.26,2.79 10.43,2.79 6.6,0 14.43,-2.21 22.01,-4.35 1.43,-0.41 2.89,-0.61 4.34,-0.61 4.98,0 9.81,2.32 12.83,6.46 3.89,5.33 4.17,12.49 0.52,17.98 -11.46,17.27 -29.91,26.78 -51.93,26.78 -22.77,0 -46.06,-10.48 -60.77,-27.36 -7.4,-8.16 -12.61,-17.96 -15.76,-28.48 2.97,14.95 9.52,28.98 19.75,40.27 16.45,18.88 42.47,30.61 67.9,30.61 25.3,0 46.55,-11.02 59.81,-31.01 5.78,-8.69 5.47,-20.26 -0.75,-28.8 -4.72,-6.47 -12.37,-10.33 -20.48,-10.33 -2.35,0 -4.68,0.33 -6.91,0.96 -6.95,1.97 -14.14,4 -19.43,4 -2.94,0 -4.33,-0.65 -5.46,-1.36l-0.74 -0.46c-6.62,-3.89 -9.5,-10.42 -10.74,-15.21 -2.74,-10.62 -0.79,-23.43 5.23,-33.64 10.45,-18.82 33.1,-31.84 68.8,-39.69 13.11,-2.29 26.53,-3.44 39.87,-3.44 44.09,0 86.01,12.8 118.13,36.1 18.38,13.07 31.39,32.58 37.84,55.91 -6.03,-29 -21.18,-53.34 -43.48,-69.18z"></path> <path class="fil0" d="M2146.36 774.14l150.1 0c4.21,0 8.24,1.69 11.21,4.67 2.96,2.99 4.61,7.04 4.56,11.25l-0.01 1.53c5.26,-3.58 10.85,-6.74 16.61,-9.62 -0.96,-1.52 -2.03,-2.96 -3.31,-4.26 -4.71,-4.74 -11.24,-7.47 -17.93,-7.47l-150.1 0c-5.08,0 -9.82,1.54 -13.8,4.17 0.87,-0.15 1.76,-0.26 2.67,-0.26z"></path> <path class="fil0" d="M2400.29 765.58c54.37,0 105.2,25.55 132.67,66.66 28.93,42.13 40.68,97.59 34.82,164.68 -6.12,106.88 -53.32,207.23 -98.67,291.23l-7.04 13.41c-36.14,68.72 -73.5,139.77 -72.27,216.86 0.06,53.11 25.05,105.42 66.88,140.16 49.03,41.47 116.73,64.26 190.73,64.26 7.35,0 14.8,-0.23 22.14,-0.69 20.58,-2.02 51.02,-7.31 81.9,-20.54 -27.04,10.49 -53.16,14.87 -71.36,16.66 -7.14,0.45 -14.4,0.67 -21.55,0.67 -71.77,0 -137.33,-22.02 -184.68,-62.07 -39.69,-32.96 -63.42,-82.64 -63.47,-133.04 -1.2,-74.66 35.6,-144.62 71.19,-212.31l6.98 -13.3c45.85,-84.93 93.56,-186.41 99.77,-294.92 6.05,-69.32 -6.22,-126.81 -36.38,-170.75 -29.2,-43.71 -83.04,-70.86 -140.54,-70.86 -25.39,0 -49.56,5.22 -71.15,15.16 18.41,-7.31 38.73,-11.27 60.02,-11.27z"></path> <path class="fil0" d="M2154.53 838.55c4.81,0.52 9.33,0.69 13.8,0.86 4.24,0.16 8.27,0.35 11.77,0.83 -0.4,-6.34 -1.25,-10.97 -3.59,-13.65 -5.41,-1.7 -12.02,-1.95 -18.96,-2.2 -4.23,-0.16 -8.62,-0.32 -13.12,-0.82 -5.41,-0.58 -9.87,-3.89 -12.24,-8.42 0.8,12.15 10.02,22.06 22.33,23.4z"></path> <path class="fil0" d="M2874.2 1455.38c-44.03,-43.89 -107.39,-68.06 -178.4,-68.06 -18.69,0 -37.51,1.73 -55.98,5.16 -19.07,3.6 -42.3,9.13 -64.82,19.32 19.41,-7.88 39.04,-12.48 55.46,-15.58 17.87,-3.32 36.09,-5 54.21,-5 68.49,0 129.47,23.2 171.72,65.3 49.56,50.65 59.33,136.18 23.88,208.15 -28.35,56.47 -85.08,98.83 -155.72,116.36 -26.41,7.01 -54.14,10.61 -82.16,10.61 -66.51,0 -131.61,-20.49 -183.3,-57.69 -56.16,-39.41 -96.9,-101.12 -113.62,-168.75 15.94,72.88 59.07,139.79 119.23,181.99 53.27,38.36 120.34,59.47 188.83,59.47 28.83,0 57.29,-3.68 84.43,-10.89 73.33,-18.19 132.33,-62.4 161.93,-121.36 37.19,-75.5 26.66,-165.54 -25.69,-219.03z"></path> <path class="fil0" d="M2351.81 1366.01c4.52,-21.45 9.76,-42.69 15.39,-63.74 -4.56,-3.9 -10.26,-6.12 -16.32,-6.12 -0.53,0 -1.07,0.03 -1.64,0.06 -0.73,0.05 -1.45,0.07 -2.2,0.07 -7.43,0 -12.19,-2.1 -13.69,-3.34 -0.02,-0.22 -0.04,-0.58 -0.03,-1.14 -0.89,-80.25 -0.75,-161.38 -0.61,-239.83l0 -1.23c0.07,-52.64 0.17,-107.07 -0.06,-160.78l-0.03 -1.06c-0.49,-9.26 3.28,-18.6 10.61,-26.33 9.3,-9.82 22.55,-15.68 35.44,-15.68 1.66,0 3.3,0.11 4.9,0.31 0.66,0.08 1.3,0.14 1.93,0.18 17.38,0.86 31.21,18.6 36.67,34.6 1.3,3.94 2.43,7.93 3.49,11.94 -1.57,-6.89 -3.41,-13.72 -5.64,-20.47 -6.68,-19.59 -23.28,-40 -45.18,-41.1 -0.39,-0.02 -0.8,-0.06 -1.2,-0.11 -2,-0.25 -4.06,-0.38 -6.12,-0.38 -15.43,0 -31.25,6.96 -42.31,18.61 -9.14,9.63 -13.83,21.47 -13.19,33.35 0.01,0.26 0.01,0.51 0.02,0.76 0.23,53.93 0.13,108.77 0.05,161.8 -0.14,78.67 -0.27,160.02 0.62,239.95 -0.06,3.54 0.69,5.62 2.51,7.48 3.79,3.88 11.91,6.38 20.67,6.38 0.96,0 1.9,-0.03 2.82,-0.1 0.34,-0.02 0.68,-0.03 1.02,-0.03 4.11,0 8.07,1.62 11.04,4.52 3.21,3.15 4.91,7.49 4.72,11.98l-0.84 19.54c-0.4,8.42 -7.33,15.04 -15.76,15.04 0,0 -62.94,-0.04 -94.41,-0.04 -31.46,0 -94.41,0.04 -94.42,0.04 -6.12,0 -11.41,-3.51 -14.02,-8.65 0.82,13.31 11.79,23.69 25.19,23.69 1.6,-0.01 63.33,-0.05 94.38,-0.05 31.06,0 92.77,0.04 94.41,0.05 0.6,0 1.17,-0.11 1.76,-0.16z"></path> <path class="fil0" d="M2151.91 1299.02c1.97,0 3.99,0.03 6.04,0.09 1.85,0.04 3.75,0.09 5.63,0.09 8.85,0 12.17,-1.18 13.88,-3.02 0.14,-0.29 0.21,-0.66 0.34,-0.95 -0.89,0.03 -1.87,0.06 -3.09,0.06 -1.81,0 -3.62,-0.03 -5.4,-0.08 -2.13,-0.05 -4.22,-0.1 -6.27,-0.1 -1.23,0 -2.46,0.02 -3.62,0.06 -4.63,0.15 -9.08,1.66 -12.93,4.17 0.7,-0.11 1.39,-0.26 2.11,-0.27 1.08,-0.04 2.19,-0.05 3.31,-0.05z"></path> <path class="fil0" d="M1765.1 1264.2l-0.03 -0.7 0 -484.73c0,-13.92 -11.32,-25.24 -25.24,-25.24l-150.48 0c-6.94,0 -13.63,2.9 -18.37,7.93 -3.89,4.13 -6.16,9.49 -6.66,15.12 2.49,-1.56 5.35,-2.46 8.34,-2.46l150.49 0c8.7,0 15.77,7.06 15.77,15.77l0 484.72 0.03 0.96c0.19,7.86 0.38,15.99 3.92,19.39 0.14,0.13 0.27,0.27 0.4,0.4 2.66,2.75 7.94,3.31 16.32,3.92 3.07,0.22 6.11,0.44 9.03,0.83 8.11,1.08 14.06,8.19 13.69,16.37l-0.84 19.6c-0.27,5.93 -3.84,10.91 -8.85,13.38 6.06,0 9.78,0.01 9.78,0.01 13.51,0 24.58,-10.57 25.22,-24.11 0,0 -39.13,-31.18 -42.52,-61.16z"></path> <path class="fil0" d="M1578.69 1299.02c1.97,0 3.99,0.03 6.04,0.09 1.85,0.04 3.75,0.09 5.63,0.09 8.86,0 12.18,-1.2 13.89,-3.03 2.32,-4.63 2.82,-10.85 3,-17.58 -0.07,0 -0.12,0.01 -0.2,0.01 -1.81,0 -3.62,-0.04 -5.4,-0.09 -2.13,-0.05 -4.22,-0.09 -6.27,-0.09 -1.23,0 -2.45,0.01 -3.62,0.06 -6.72,0.22 -13.18,3.17 -17.75,8.12 -3.77,4.09 -5.98,9.4 -6.47,14.93 2.34,-1.47 5.02,-2.37 7.83,-2.45 1.09,-0.04 2.2,-0.05 3.32,-0.05z"></path> <path class="fil1" d="M891.53 1091.37c-24.93,35.39 -26.05,81.48 -21.32,123 4.45,35.22 26.32,74.46 64.67,79.69 27.27,7.57 57.04,-11.63 64.16,-38.17 0.89,-84.82 -1.17,-169.68 1.01,-254.5 -30.16,37.01 -80.25,51.03 -108.52,89.98zm458.63 -291.78c-43.35,17.92 -55.87,69.89 -58.6,112.19 -1.17,100.56 -0.06,201.12 -0.56,301.69 -0.84,25.09 8.41,50.14 24.04,69.61 21.04,25.66 63.06,29.5 87.88,7.25 27.27,-24.04 37.74,-60.82 45.8,-94.94 16.14,-82.03 16.59,-166.46 9.4,-249.43 -5.56,-44.42 -11.18,-92.38 -39.79,-128.73 -15.74,-20.48 -44.46,-26.82 -68.17,-17.64zm-454.4 3.89c31.33,4.56 62.33,11.79 94.05,13.24 -20.15,-32 -64.73,-31.61 -94.05,-13.24zm-796.49 36.18c-59.5,70.45 -83.54,165.35 -78.47,256.28 3.5,92.21 39.24,186.2 109.8,247.81 71.45,63.61 171.19,90.15 265.35,80.47 51.87,-7.24 104.35,-27.77 139.25,-68.23 -18.93,-87.21 -28.22,-177.02 -20.04,-266.12 8.07,-95.56 36.68,-189.16 83.65,-272.81 5.29,-28.83 0.84,-59.05 2.29,-88.43 -76.25,-18.43 -155.16,-30.44 -233.68,-21.98 -101.34,9.84 -202.52,53.2 -268.13,133.01zm615.73 -275.59c-15.36,36.79 -12.97,77.8 -13.8,116.87 32.28,-31.67 66.73,-61 103.51,-87.27 -3.23,-17.19 -6.57,-36.29 -20.43,-48.36 -22.14,-16.97 -58.65,-7.18 -69.28,18.76zm163.12 -4.68c17.09,23.87 18.48,65.28 -10.24,80.81 -26.49,13.35 -59.16,-5.79 -63.05,-34.56 -37.07,26.88 -72.12,56.54 -103.68,89.7 0,16.98 0,33.95 0,50.87 50.8,16.47 101.68,32.78 153.38,46.07 39.29,-16.58 82.47,-24.37 125.04,-20.76 36.68,2.23 73.08,18.43 95.67,48.03 39.23,-2.12 78.19,-8.8 115.59,-20.7 -0.5,-117.48 17.87,-235.96 61.33,-345.44 -130.23,9.02 -258.73,44.41 -374.04,105.96zm464.14 -108.57c-33,94.22 -49.7,194 -50.92,293.73 86.26,-68.84 124.11,-182.09 122.16,-289.78 -23.76,-1.68 -47.52,-2.45 -71.24,-3.95zm52.88 -113.87c-17.03,34.17 -35.35,67.84 -49.25,103.52 22.48,0.89 45.02,1.89 67.5,3.56 -2.01,-36.29 -8.35,-72.12 -18.25,-107.07zm389.78 -299.34c-149.76,33.16 -280.27,131.56 -363.64,259 24.49,46.47 35.12,99.11 36.96,151.31 89.15,9.4 177.87,23.32 267.3,30.16 100.12,6.91 202.79,11.3 300.4,-16.41 70.24,-19.08 141.14,-57.82 175.43,-124.89 27.83,-55.98 31.27,-124.65 7.35,-182.65 -23.77,-56.48 -78.97,-92.82 -135.79,-110.29 -93.01,-28.72 -193.5,-26.33 -288,-6.23zm-31.89 -9.41c82.31,-18.59 167.79,-24.37 251.77,-15.74 70.73,8.9 143.02,30.1 197.9,77.52 34.28,29.11 59.38,70.34 63.77,115.65 4.78,58.04 -12.47,118.27 -49.53,163.56 -31.27,39.24 -74.97,66.96 -121.32,85.1 -71.57,28.43 -149.2,37.39 -225.67,39.28 -138.07,2.73 -274.64,-20.14 -411.48,-34.77 0,78.64 -21.49,159.04 -71.13,221.15 -26.44,33.73 -59.32,62.39 -96.21,84.15 -0.06,18.81 -0.06,37.62 -0.06,56.44 14.86,-20.43 34.56,-38.19 59.27,-45.3 47.64,-12.74 101.12,1.55 136.01,36.39 48.97,47.81 69.06,116.93 76.13,183.26 8.79,90.44 -6.35,187.43 -60.77,262.29 -33.39,46.97 -90.65,79.97 -149.42,73.07 -24.93,-2.67 -45.58,-18.76 -61.27,-37.29 0.06,10.41 0.06,20.82 0.11,31.27 -48.81,0 -97.56,-0.05 -146.31,0 -0.22,-5 -0.67,-15.03 -0.84,-20.03 13.68,-1.18 30.61,2.61 40.63,-9.52 6.84,-11.13 6.17,-24.72 6.46,-37.23 -0.17,-149.53 0,-299.07 -0.06,-448.56 -35.9,10.52 -72.79,18.03 -110.13,20.37 13.41,23.54 17.69,50.81 18.08,77.53 0.78,121.99 -0.66,244.03 0.73,366.02 -1.72,21.82 20.6,33 39.68,31.27 -0.33,5.06 -1,15.14 -1.34,20.15 -46.41,-0.1 -92.83,0.11 -139.24,-0.1 0.27,-11.25 0.67,-22.5 1.67,-33.63 -52.15,60.22 -158.27,51.26 -205.3,-10.96 -40.51,-51.77 -36.68,-133.18 9.52,-180.1 55.65,-54.58 141.86,-64.21 194.78,-121.98 -2.23,-49.64 3.95,-99.79 -5.01,-148.98 -34.95,-3.73 -69.73,-8.96 -103.85,-17.48 -5.96,13.58 -13.08,28.83 -7.02,43.68 6.07,17.15 9.69,38.02 -2.56,53.43 -22.64,32.44 -80.03,18.97 -89.43,-18.37 -9.67,-39.06 19.59,-77.24 54.6,-91.27 -49.25,-10.79 -96.83,-27.87 -144.98,-42.68 -0.05,158 0,315.99 -0.05,473.98 0.33,21.99 -2.45,44.8 6.06,65.68 15.09,9.13 32.78,9.02 49.81,8.69 -0.06,6.67 -0.06,13.36 -0.06,20.08 -65.72,0 -131.45,-0.05 -197.23,0 -0.44,-6.85 -0.95,-13.63 -1.5,-20.42 12.19,-0.94 28.05,3.39 36.45,-8.13 6.74,-9.29 5.9,-21.37 6.4,-32.21 -0.11,-143.09 0.22,-286.17 -0.17,-429.25 -73.41,135.07 -91.11,294.85 -69.29,445.55 17.92,130.84 75.18,257.39 168.29,351.89 107.19,110.07 254.67,174.51 405.15,197.67 100.18,15.2 203.68,15.25 302.41,-9.4 59.49,-14.64 119.37,-38.9 162.56,-83.93 47.69,-48.74 61.72,-125.66 38.62,-189.22 -17.48,-47.52 -59.99,-81.42 -106.18,-99.11 -77.08,-29.55 -163.84,-34 -243.26,-11.02 -37.95,11.46 -75.91,28.27 -103.62,57.48 -22.77,23.77 -35.45,59.22 -25.71,91.62 8.51,33.56 36.79,58.09 67.44,71.68 43.63,18.2 94.05,20.98 138.91,5.51 16.03,-5.35 28.83,-16.92 44.18,-23.76 3.84,16.14 -9.57,25.16 -22.82,29.27 -64.89,21.43 -138.51,15.7 -198.73,-16.8 -28.72,-16.25 -53.38,-44.02 -56.44,-77.98 -5.06,-39.45 15.19,-78.46 46.47,-101.73 51.65,-39.28 117.65,-53.37 181.09,-58.37 82.03,-4.91 170.12,7.5 237.31,58.15 48.24,36.07 72.01,98.78 65.67,158 -3.18,67.55 -40.57,130.44 -94.45,170.24 -72.46,54.3 -164.06,75.84 -253.11,81.29 -182.98,10.18 -370.2,-45.35 -514.77,-158.88 -114.93,-90.61 -200.35,-220.39 -232.52,-363.51 -4.95,36.62 -34.67,63.94 -64.28,83.08 -59.16,37.23 -133.56,36.51 -199.46,20.58 -90.82,-20.81 -171.8,-80.13 -219.04,-160.49 -50.7,-84.65 -64.16,-187.83 -50.15,-284.49 12.47,-92.55 60.78,-180.76 135.69,-237.36 85.7,-66.12 196.95,-91.27 303.63,-87.88 52.93,1.84 105.13,12.07 156.49,24.6 -1,-43.13 -0.1,-88.42 21.31,-127.17 20.71,-40.17 63.5,-64.83 107.47,-70.5 48.86,-6.51 103.68,-0.78 142.2,32.83 117.64,-65 250.6,-101.18 384.55,-108.69 24.49,-64.44 61.73,-123.37 105.57,-176.3 -37.56,-59.99 -100.89,-103.24 -170.84,-114.75 -64.61,-10.75 -134.02,-3.51 -191.89,28.5 -36.46,19.92 -66.62,54.31 -73.79,96.11 -3.68,24.53 -2.68,53.64 16.8,71.73 16.86,15.81 41.25,16.37 62.89,18.93 -9.24,13.68 -20.76,26.99 -37.17,31.78 -38.29,11.4 -81.04,-13.48 -94.23,-50.21 -10.63,-29.77 -5.56,-63.27 6.97,-91.66 23.76,-52.36 75.79,-85.37 128.39,-103.73 127.44,-44.47 284.82,-17.14 375.32,87.55 97.16,-106.63 227.73,-181.77 368.46,-213.1z"></path> <path class="fil1" d="M1645 603.92c40.62,-10.4 82.42,28.94 76.86,70.01 -1.18,32.95 -29,64.95 -63.56,62.61 -30.72,1.95 -57.48,-23.37 -62.78,-52.7 -9.4,-34.44 14.97,-72.34 49.48,-79.92z"></path> <path class="fil1" d="M1996.27 1001.45c-30.27,36.96 -80.25,51.03 -108.58,89.93 -24.93,35.39 -25.99,81.48 -21.32,122.94 4.46,35.23 26.22,74.41 64.51,79.69 27.32,7.69 57.21,-11.46 64.33,-38.11 0.89,-84.82 -1.29,-169.68 1.05,-254.45zm-84.59 -227.12c46.97,-7.24 100.29,-6.07 139.3,24.6 32.62,25.21 44.25,68.23 44.14,107.86 0.39,117.14 0.06,234.29 0.17,351.44 0.5,12.68 -1,27.65 9.34,37.23 8.12,8.18 20.36,7.07 30.89,8.62 -0.5,6.68 -0.95,13.42 -1.34,20.15 -46.4,-0.1 -92.83,0.11 -139.24,-0.1 0.28,-11.25 0.67,-22.43 1.67,-33.63 -52.2,60.22 -158.27,51.26 -205.3,-10.96 -40.57,-51.77 -36.68,-133.29 9.63,-180.2 55.65,-54.53 141.8,-64.16 194.67,-121.93 -0.94,-37.57 0.34,-75.13 -0.5,-112.7 -1.06,-24.1 -5.46,-52.93 -28.17,-66.39 -28.66,-15.26 -73.84,-8.19 -85.92,25.38 -12.47,25.93 14.91,52.7 -0.06,78.36 -15.09,32.01 -63.45,31.05 -83.98,5.23 -18.59,-22.65 -12.07,-56.99 5.46,-78.36 26.6,-32.78 69.05,-47.08 109.24,-54.59z"></path> <path class="fil1" d="M2290.28 816.56c55.65,-68.17 175.74,-58.93 223.99,13.31 30.73,44.75 36.85,101.62 32.23,154.54 -5.84,101.96 -49.03,196.56 -96.84,285.1 -38.85,74.24 -82.59,151.65 -81.2,238.02 0.06,58.32 27.88,114.91 72.57,152.04 61.33,51.87 144.87,72.13 223.95,67.17 62.1,-6.07 126.1,-30.6 166.73,-79.8 48.32,-57.77 41.63,-155.99 -21.31,-200.74 -50.49,-36.62 -116.65,-47.53 -177.32,-36.9 -33.06,7.24 -68.9,21.1 -86.2,52.26 -15.42,26.16 -13.52,66.22 14.8,82.87 14.25,9.18 30.55,4.49 45.53,0.27 -20.22,30.44 -66.18,22.44 -87.65,-2.22 -21.48,-23.72 -19.59,-62.22 -0.28,-86.65 25.6,-33.73 68.51,-47.69 108.51,-55.26 73.8,-13.69 157.39,1.66 211.87,55.98 48.64,49.7 50.42,130.01 20.87,189.99 -28.28,56.32 -85.48,93.17 -145.37,108.02 -85.32,22.65 -180.53,7.18 -252.44,-44.58 -68.84,-48.3 -112.08,-129.73 -115.31,-213.59 -4.78,-164.51 80.31,-313.98 92.5,-476.32 4.12,-54.26 6.79,-110.31 -10.46,-162.73 -8.85,-25.93 -30.33,-50.48 -59.38,-51.92 -38.95,-4.95 -81.53,26.93 -79.36,68.06 0.57,133.91 -0.83,267.91 0.68,401.88 -0.44,22.81 23.92,30.55 42.79,29.32 -0.23,4.89 -0.61,14.63 -0.84,19.53 -62.94,-0.05 -125.88,-0.05 -188.83,0 -0.34,-6.85 -0.66,-13.69 -1,-20.53 13.96,-0.44 32,3.17 41.57,-9.91 5.29,-9.17 5.51,-20.14 5.67,-30.38 -0.11,-141.19 -0.11,-282.43 0,-423.62 -0.6,-13.25 0.34,-29.33 -11.69,-38.12 -12.13,-5.06 -25.76,-3.51 -38.51,-4.9 0.06,-4.51 0.17,-13.47 0.23,-17.97 50.03,0 100.06,0 150.1,0 -0.12,12.57 -0.18,25.21 -0.62,37.78z"></path> <path class="fil1" d="M1567.09 778.78c50.14,0 100.28,0 150.48,0 0,161.56 0,323.12 0,484.73 0.28,10.97 0.22,23.49 8.8,31.73 9.07,9.35 22.81,7.85 34.61,9.41 -0.22,4.9 -0.61,14.69 -0.84,19.58 -62.94,-0.05 -125.88,-0.05 -188.83,0 -0.34,-6.85 -0.67,-13.69 -1,-20.53 13.97,-0.44 32,3.17 41.57,-9.91 5.34,-9.23 5.51,-20.25 5.67,-30.54 -0.1,-141.25 -0.1,-282.49 0,-423.73 -0.61,-13.19 0.23,-29.11 -11.69,-37.84 -11.79,-5.18 -25.15,-3.51 -37.61,-4.4 -0.28,-4.61 -0.89,-13.85 -1.17,-18.47z"></path> <path class="fil2" d="M843.59 883.84c-5.44,0 -10.12,-3.14 -10.72,-4.52 -1.96,-7.93 1.11,-16.58 6.81,-24.09 0.8,4.68 2.08,9.48 3.98,14.35 2.64,7.68 2.94,11.84 2.92,13.48l-0.41 0.57c-0.01,0 -0.02,-0.01 -0.05,-0.01 -0.22,0 -1.08,0.23 -2.53,0.23zm650.12 302.39c12.49,-72.93 14.73,-152.96 6.85,-243.94l-0.44 -3.73c-1.66,-13.4 -3.41,-27.29 -5.82,-41.35 12.97,28.34 21.59,62.47 25.81,102.17 6.74,69.3 -2.57,133.9 -26.41,186.84zm-652.21 80.47c-4.67,-3.85 -8.83,-8.15 -12.37,-12.84l-0.44 -0.57c-25.38,-32.41 -24.61,-84.73 0.25,-116.97 -4.23,24.47 -4.55,51.98 -1.04,82.88 2.02,15.98 6.56,32.31 13.6,47.5zm-198.61 14.91c0.41,-4.51 0.52,-8.57 0.61,-12 0.04,-1.41 0.07,-2.82 0.14,-4.2l0.05 -1 -0 -1c-0.04,-54.54 -0.02,-109.09 0,-163.63 0.03,-87.08 0.07,-177.11 -0.17,-265.69l-4.75 -1.2 0.65 -1.17 1.28 -6.98c3.39,-18.49 3.58,-36.78 3.25,-53.55l0.95 0.23 -1.05 -45.26 1.51 -30.65 -1.99 -0.49c0.12,-30.46 2.94,-60.64 16.25,-84.69 0,0 1.22,-2.32 1.55,-2.92 -2.01,18.95 -2.18,37.53 -2.32,54.96 -0.04,5.31 -0.09,10.59 -0.19,15.84l-0.1 0.1 0 4.82 -2.16 101.43 2.21 -2.16c-0.02,70.12 -0.02,140.26 -0.02,210.37 0,79 0,157.99 -0.03,236.97l0 0.67c0.07,4.32 -0,8.68 -0.06,13.03 -0.18,11.4 -0.38,24.42 1.49,38.16l-17.09 -0.01zm589.68 0.01c0.85,-7.22 0.93,-13.83 1.01,-19.33l0.07 -4.9c-0.09,-89.84 -0.07,-179.69 -0.05,-269.52 0.01,-59.67 0.02,-119.33 0,-178.99l-0.01 -33.39c1.84,-104.96 19.41,-202.71 52.31,-291.1l0.65 -0.04 1.18 -3.09c-24.36,82.7 -37.43,169.36 -38.91,258.33l-0.21 0.12 -0.06 21.9 -0.9 72.3 0.83 -0.66 0 118.23 0.15 -0.21c-0.29,46.09 -0.22,92.28 -0.14,137.3 0.05,28.99 0.1,58.67 0.06,88.29l-0.74 -0.86 0.55 105.61 -15.78 0zm-188.56 0l-2.17 -104c-0.02,-8.89 -0.06,-17.71 -0.09,-26.47 -0.18,-48.83 -0.38,-99.33 0.89,-148.67l3.19 -124.67 -3.89 4.76c-0.13,-6.91 -0.38,-13.86 -0.81,-20.85l8.12 0.38c4.51,12.3 6.84,27.26 7.11,45.31 0.34,53.11 0.25,107.57 0.16,160.25 -0.11,66.86 -0.22,135.99 0.54,204.13 -0.16,3.31 -0.07,6.6 0.22,9.84l-7.08 0c-2.06,0 -4.13,0 -6.2,0z"></path> <path class="fil2" d="M1658.39 693.86l-3.42 0.2c-7.37,0 -15.89,-8.64 -17.53,-17.78l-0.34 -1.85 -0.49 -1.81c-1.3,-4.73 -0.19,-10.5 3.04,-15.83 3.53,-5.84 8.95,-10.06 14.47,-11.27l1.44 -0.34c0.94,-0.25 1.88,-0.36 2.87,-0.36 5.05,0 11.16,3.26 15.56,8.29 4.17,4.77 6.28,10.42 5.65,15.09l-0.28 2.09 -0.07 2.11c-0.38,10.52 -9.33,21.65 -17.43,21.65l-3.47 -0.21z"></path> <path class="fil2" d="M1839.17 883.79c-4.56,0 -8.01,-1.97 -8.85,-3.01l-0.41 -0.52c-3.2,-3.89 -1.26,-16.12 5.46,-24.33 0.34,-0.41 0.69,-0.82 1.04,-1.23 1.08,6.66 2.65,12.68 4,17.85 0.85,3.23 2.04,7.82 2.44,10.47l-0.1 0.24c-0.62,0.22 -1.83,0.53 -3.57,0.53zm-1.58 382.86c-4.63,-3.85 -8.77,-8.12 -12.3,-12.8l-0.46 -0.58c-25.41,-32.42 -24.62,-84.75 0.3,-117.01 -4.21,24.44 -4.55,51.95 -1.08,82.83l0.08 0.57c1.99,15.75 6.48,31.9 13.47,46.99zm202.57 14.97l10.6 -118.62 -12.78 14.75c-0.03,-8.37 -0.06,-16.68 -0.09,-24.92 -0.21,-49.35 -0.41,-100.38 0.96,-150.2l3.45 -124.56 -4.34 5.29c-0.05,-6.51 -0.12,-13.05 -0.27,-19.59l-0.03 -0.92c-0.2,-4.28 -0.47,-10.61 -1.37,-18.15 14.53,20.62 16.27,49.03 16.23,61.98 0.23,72.91 0.2,146.82 0.17,218.29 -0.03,44.44 -0.05,88.87 0,133.31l0.03 1.65c0.06,1.52 0.09,3.08 0.1,4.67 0.07,4.62 0.17,10.5 0.98,17.04l-7.43 0c-2.07,0 -4.14,0 -6.21,0z"></path> <path class="fil2" d="M2461.16 1149.45c10,-41.06 18.01,-83.05 21.24,-126.17 4.41,-58.09 7.09,-119.81 -12.48,-179.24 -0.27,-0.81 -0.55,-1.62 -0.85,-2.42 3.66,3.67 6.95,7.65 9.79,11.9 26.68,38.87 28.4,90.57 25.21,127.19l-0.09 1.25c-3.35,58.22 -20.16,114.1 -42.83,167.48zm-228.7 132.14c0.73,-6.55 0.83,-12.51 0.9,-17.49l0 -0.73c-0.1,-141.17 -0.1,-282.39 0,-423.56l0 -1.01 -0.19 -4.92c-0.1,-3.43 -0.25,-7.71 -0.72,-12.51l15.02 0 -4.25 120.18 5.04 -6.17c0.02,33.49 -0.04,66.97 -0.09,99.74 -0.14,78.68 -0.27,160.05 0.62,240.2 -0.01,2.11 0.06,4.2 0.22,6.27 -3.36,0 -14.41,0 -16.56,0z"></path> <path class="fil2" d="M1659.24 1281.59c0.74,-6.58 0.83,-12.58 0.91,-17.6l0.01 -0.8c-0.11,-141.22 -0.11,-282.45 0,-423.66l0 -1.01 -0.19 -4.76c-0.12,-3.4 -0.26,-7.64 -0.74,-12.39l15.74 0 0.01 443.22 0.04 1.28c0.1,4.28 0.24,9.69 0.96,15.72 -3.41,0 -14.57,0 -16.74,0z"></path> </g> </svg> 