<?xml version="1.0" encoding="UTF-8"?> <!-- Creator: CorelDRAW 2017 --> <svg xmlns="http://www.w3.org/2000/svg" xmlns:xlink="http://www.w3.org/1999/xlink" xml:space="preserve" width="97.5282mm" height="47.2824mm" style="shape-rendering:geometricPrecision; text-rendering:geometricPrecision; image-rendering:optimizeQuality; fill-rule:evenodd; clip-rule:evenodd" viewBox="0 0 2426.99 1176.62"> <defs> <style type="text/css"> <![CDATA[ .fil2 {fill:#FEFEFE;fill-rule:nonzero} .fil1 {fill:#A2A2A2;fill-rule:nonzero} .fil0 {fill:#322F2C;fill-rule:nonzero} ]]> </style> </defs> <g id="Слой_x0020_1"> <metadata id="CorelCorpID_0Corel-Layer"></metadata> <g id="_2093738718576"> <path class="fil0" d="M681.09 957.88l-33.02 0 59.17 -181.62 33.02 0 -59.16 181.62zm162.72 73.17c-4.68,-5.8 -11.59,-9.65 -19.65,-9.65l-10.02 0 21.17 -17.52c3.79,-3.14 6.61,-7.29 8.14,-11.97l113.28 -347.76c1.21,-3 1.88,-6.28 1.88,-9.7 0,-14.36 -11.56,-25.99 -25.92,-25.99l-229.63 0c-5.14,0 -10.15,1.52 -14.42,4.36l-129.03 86.03c-4.87,3.25 -8.51,8.05 -10.31,13.62l-123.75 382.5c-2.56,7.91 -1.18,16.57 3.71,23.29 4.89,6.72 12.7,10.7 21.02,10.7l223.91 0 77.39 44.22c4.07,2.32 8.5,3.43 12.87,3.43 8.99,0 17.72,-4.67 22.54,-13.01l62.79 -111.18 -5.96 -21.38z"></path> <path class="fil0" d="M1381.08 619.18c-4.89,-6.73 -12.7,-10.71 -21.03,-10.71l-123.6 0c-11.25,0 -21.23,7.24 -24.71,17.94l-107.98 331.47 -30.19 0 102.19 -313.72c1.21,-3 1.88,-6.28 1.88,-9.7 0,-14.36 -11.57,-25.99 -25.92,-25.99l-127.46 0c-11.26,0 -20.55,7.25 -24.03,17.96l-152.21 468.53c-2.57,7.91 -1.19,16.58 3.7,23.3 4.88,6.73 12.7,10.72 21.03,10.72l335.09 0c11.26,0 21.24,-7.26 24.72,-17.96l152.21 -468.53c2.56,-7.91 1.19,-16.57 -3.7,-23.3z"></path> <path class="fil1" d="M414.98 294.67l68.47 -29.69 23.45 -70.35 -58.96 0 -32.96 100.04zm-215.1 234.89l145.9 -449.11 336.83 0 -78.03 240.43 -231.53 102.77 -34.25 105.92 -138.92 0z"></path> <path class="fil2" d="M290.74 76.53c-5.19,-0.38 -191.58,-14.27 -290.74,-76.53 13.65,62.79 40.95,117.41 125.59,171.57 -29.64,22.77 -125.59,-25.07 -125.59,-25.07 5.46,111.93 156.36,154.39 137.94,156.53 -28.73,8.22 -57.97,6.46 -101.08,-9.53 16.16,86.69 100.29,119.86 140.88,130.85l113 -347.82z"></path> <path class="fil1" d="M824.07 262.5l64.07 -15.21 17.75 -55.81 -58.99 0 -22.82 71.03zm-225.83 267.06l145.9 -449.11 336.83 0 -74.07 227.29 -111.12 25.11 77.42 79.19 -38.07 117.52 -138.97 0 45.04 -138.28 -44.4 -44.39 -59.62 182.68 -138.92 0z"></path> <path class="fil1" d="M1188.78 406.51l59 0 69.14 -211.88 -58.99 0 -69.15 211.88zm-178.88 123.05l119.25 -366.64 123.7 -82.47 239.78 0 -119.26 366.64 -123.7 82.47 -239.78 0z"></path> <polygon class="fil1" points="1564.32,529.56 1423.5,529.56 1569.4,80.45 1868.16,80.45 1832,191.47 1674.06,191.47 1649.96,265.04 1726.71,265.04 1702.6,339.26 1625.85,339.26 "></polygon> <polygon class="fil1" points="1922.71,529.56 1781.89,529.56 1927.79,80.45 2226.56,80.45 2190.4,191.47 2032.46,191.47 2008.35,265.04 2085.1,265.04 2060.99,339.26 1984.25,339.26 "></polygon> <polygon class="fil1" points="2140.28,529.56 2286.18,80.45 2426.99,80.45 2245.07,640.44 "></polygon> <path class="fil0" d="M460.97 829.04c2.55,-7.91 1.16,-16.56 -3.73,-23.27 -4.89,-6.71 -12.7,-10.68 -21.01,-10.68l-150.77 0 6.16 -18.83 167.77 0c11.26,0 21.23,-7.24 24.71,-17.94l37.18 -114.15c1.21,-3 1.88,-6.28 1.88,-9.7 0,-14.36 -11.57,-25.99 -25.93,-25.99l-209.73 0c-5.32,0 -10.5,1.63 -14.86,4.67l-131.02 92.23c-4.66,3.25 -8.13,7.94 -9.87,13.33l-55.59 172.05c-2.55,7.91 -1.17,16.57 3.71,23.28 4.89,6.72 12.7,10.7 21.02,10.7l129.97 -0.91 -11.27 34.06 -147.15 0.91c-11.28,0 -21.27,7.28 -24.74,18.02l-38.39 119.11c-2.54,7.91 -1.16,16.56 3.73,23.27 4.89,6.72 12.69,10.69 21,10.69l209.62 -0.91c5.83,0 11.48,-1.96 16.07,-5.56l136.32 -107.2c4.06,-3.2 7.09,-7.53 8.67,-12.46l56.24 -174.7z"></path> <path class="fil0" d="M1556.14 819.57l2.16 -1.99 -0.65 1.99 -1.51 0zm260.1 -185.11c0,-14.36 -11.57,-25.99 -25.93,-25.99l-204.38 0c-6.32,0 -12.42,2.3 -17.17,6.48l-176.68 155.53c-3.49,3.07 -6.09,7.03 -7.54,11.45l-101.9 313.01c-2.58,7.91 -1.21,16.57 3.68,23.31 4.89,6.74 12.71,10.73 21.04,10.73l124.18 0c11.26,0 21.24,-7.26 24.72,-17.96l53.05 -163.36 29.13 0 -47.84 147.3c-2.57,7.91 -1.19,16.58 3.7,23.3 4.89,6.73 12.7,10.72 21.03,10.72l122.69 0c11.26,0 21.24,-7.26 24.71,-17.96l151.65 -466.87c1.21,-2.99 1.88,-6.27 1.88,-9.69z"></path> <path class="fil0" d="M1964.86 980.05l-27.69 -22.17 52.12 -159.86 25.73 28.79 -50.16 153.23zm237.28 -228.96l-105.22 -119.78c-4.93,-5.61 -12.04,-8.83 -19.52,-8.83l-185.97 0c-11.26,0 -21.24,7.25 -24.72,17.95l-152.2 454.53c-2.57,7.91 -1.2,16.58 3.69,23.3 4.89,6.73 12.7,10.72 21.03,10.72l330.24 0c11.26,0 21.24,-7.26 24.71,-17.97l113.17 -334.75c2.83,-8.72 0.85,-18.29 -5.2,-25.17z"></path> <polygon class="fil2" points="246.27,1076.99 15.98,1076.99 54.36,957.88 240.97,957.88 269.44,871.85 82.81,871.85 138.41,699.79 269.44,608.47 499.72,608.47 462.01,724.28 275.39,724.28 252.23,795.09 438.84,795.09 382.6,969.79 "></polygon> <path class="fil2" d="M614.88 957.88l61.54 0 76.1 -233.6 -61.54 0 -76.09 233.6zm-183.31 119.11l123.75 -382.5 129.03 -86.03 250.82 0 -113.83 349.41 -76.76 63.53 82.06 0 -59.56 103.23 -83.38 -47.64 -252.12 0z"></path> <polygon class="fil2" points="855.09,1076.99 1007.3,608.47 1154.2,608.47 1040.38,957.88 1101.92,957.88 1215.74,608.47 1362.66,608.47 1210.45,1076.99 "></polygon> <path class="fil2" d="M1579.05 819.57l37.72 -114.5 -88.01 80.75 -11.25 33.75 61.54 0zm-289.84 257.42l101.91 -313.01 176.68 -155.52 224.99 0 -152.19 468.53 -144.93 0 58.9 -181.32 -61.55 0 -58.89 181.32 -144.92 0z"></path> <path class="fil2" d="M2025.74 773.91l-43.02 -57.57 -78.75 241.54 61.55 0 60.22 -183.97zm-305.07 303.08l152.21 -468.53 207.12 0 105.22 119.78 -113.17 348.75 -351.38 0z"></path> </g> </g> </svg> 