<?xml version="1.0" encoding="UTF-8"?> <!-- Creator: CorelDRAW 2017 --> <svg xmlns="http://www.w3.org/2000/svg" xmlns:xlink="http://www.w3.org/1999/xlink" xml:space="preserve" width="2.9972mm" height="3.2427mm" style="shape-rendering:geometricPrecision; text-rendering:geometricPrecision; image-rendering:optimizeQuality; fill-rule:evenodd; clip-rule:evenodd" viewBox="0 0 4.14 4.48"> <defs> <style type="text/css"> <![CDATA[ .fil0 {fill:#FEFEFE;fill-rule:nonzero} ]]> </style> </defs> <g id="Слой_x0020_1"> <metadata id="CorelCorpID_0Corel-Layer"></metadata> <path class="fil0" d="M4.14 2.06c0,0.33 -0.05,0.64 -0.15,0.92 -0.1,0.28 -0.25,0.53 -0.45,0.75 -0.23,0.25 -0.51,0.44 -0.83,0.56 -0.32,0.13 -0.69,0.19 -1.11,0.19 -0.23,0 -0.45,-0.02 -0.63,-0.06 -0.19,-0.04 -0.35,-0.1 -0.49,-0.19 -0.16,-0.1 -0.28,-0.21 -0.36,-0.35 -0.08,-0.14 -0.12,-0.3 -0.12,-0.48 0,-0.16 0.02,-0.34 0.06,-0.55 0.04,-0.21 0.11,-0.44 0.19,-0.7 0.1,-0.29 0.2,-0.56 0.32,-0.8 0.12,-0.24 0.24,-0.46 0.38,-0.64 0.17,-0.23 0.34,-0.41 0.51,-0.53 0.18,-0.12 0.36,-0.18 0.55,-0.18 0.23,0 0.47,0.06 0.7,0.18 0.23,0.12 0.47,0.29 0.71,0.52 0.24,0.23 0.42,0.46 0.54,0.69 0.12,0.23 0.18,0.46 0.18,0.68zm-0.25 0.88c0.1,-0.27 0.14,-0.56 0.14,-0.88 0,-0.21 -0.06,-0.42 -0.17,-0.63 -0.11,-0.22 -0.29,-0.44 -0.52,-0.66 -0.23,-0.22 -0.46,-0.39 -0.68,-0.5 -0.22,-0.11 -0.44,-0.16 -0.66,-0.16 -0.16,0 -0.33,0.05 -0.49,0.16 -0.16,0.11 -0.33,0.28 -0.49,0.5 -0.13,0.18 -0.25,0.39 -0.37,0.63 -0.11,0.23 -0.22,0.5 -0.31,0.79 -0.08,0.26 -0.15,0.48 -0.19,0.69 -0.04,0.2 -0.06,0.38 -0.06,0.53 0,0.16 0.04,0.31 0.11,0.43 0.07,0.12 0.18,0.23 0.33,0.32 0.13,0.08 0.28,0.13 0.46,0.17 0.18,0.04 0.38,0.06 0.61,0.06 0.4,0 0.76,-0.06 1.07,-0.18 0.31,-0.12 0.57,-0.3 0.79,-0.54 0.19,-0.21 0.34,-0.45 0.43,-0.71zm-0.28 -0.27c0,-0.1 -0.04,-0.2 -0.11,-0.31 -0.07,-0.11 -0.18,-0.23 -0.33,-0.35 -0.13,-0.1 -0.27,-0.2 -0.43,-0.3 -0.16,-0.09 -0.33,-0.18 -0.52,-0.27 -0.18,-0.08 -0.33,-0.13 -0.46,-0.17 -0.13,-0.04 -0.24,-0.06 -0.32,-0.06 -0.11,0 -0.22,0.04 -0.31,0.12 -0.1,0.08 -0.19,0.2 -0.27,0.37 -0.07,0.13 -0.12,0.27 -0.15,0.4 -0.03,0.13 -0.05,0.27 -0.05,0.4 0,0.15 0.03,0.27 0.09,0.38 0.06,0.11 0.15,0.19 0.28,0.26 0.12,0.06 0.26,0.11 0.43,0.14 0.17,0.03 0.38,0.05 0.61,0.05 0.23,0 0.44,-0.02 0.62,-0.05 0.19,-0.03 0.35,-0.09 0.5,-0.15 0.14,-0.07 0.25,-0.14 0.32,-0.22 0.07,-0.07 0.1,-0.16 0.1,-0.24zm-0.02 -0.37c0.08,0.13 0.12,0.25 0.12,0.37 0,0.11 -0.04,0.22 -0.12,0.31 -0.08,0.09 -0.2,0.17 -0.35,0.24 -0.15,0.07 -0.33,0.12 -0.52,0.16 -0.19,0.04 -0.41,0.05 -0.64,0.05 -0.24,0 -0.45,-0.02 -0.63,-0.05 -0.18,-0.03 -0.34,-0.09 -0.46,-0.15 -0.14,-0.08 -0.25,-0.18 -0.32,-0.3 -0.07,-0.12 -0.11,-0.27 -0.11,-0.43 0,-0.14 0.02,-0.28 0.05,-0.43 0.04,-0.14 0.09,-0.28 0.16,-0.42 0.09,-0.18 0.19,-0.31 0.3,-0.4 0.11,-0.09 0.24,-0.14 0.38,-0.14 0.09,0 0.21,0.02 0.35,0.06 0.14,0.04 0.29,0.1 0.47,0.18 0.19,0.08 0.37,0.18 0.53,0.27 0.16,0.1 0.31,0.2 0.44,0.31 0.16,0.13 0.28,0.25 0.35,0.38z"></path> </g> </svg> 