<?xml version="1.0" encoding="UTF-8"?> <!-- Generator: Adobe Illustrator 21.1.0, SVG Export Plug-In . SVG Version: 6.00 Build 0) --> <svg xmlns="http://www.w3.org/2000/svg" xmlns:xlink="http://www.w3.org/1999/xlink" id="Layer_1" x="0px" y="0px" viewBox="0 0 108.2 108.2" style="enable-background:new 0 0 108.2 108.2;" xml:space="preserve"> <style type="text/css"> .st0{fill:#8E9090;} .st1{fill:#231F20;} .st2{fill:#FFFFFF;} </style> <g> <g> <g> <path class="st2" d="M100.7,38.6c-0.8-4.7-1.5-7.5-5.8-10.1c-11.2-7-32.5,5.1-40.4-8.1c-0.3-0.5-0.6-0.5-0.9,0 c-7.9,13.1-29.1,1.1-40.4,8.1c-4.3,2.6-5,5.4-5.8,10.1c-0.2,1.4-0.5,3.7,0.2,1.9c0.9-2.3,2.2-4.4,4.4-5.8c3-2,6.6-2.3,10.1-2.2 c7.4,0.3,17.2,2.4,24.4,0c6.7-2.2,7.6-10.4,7.6-10.4s1,8.2,7.6,10.4c7.2,2.4,17,0.3,24.4,0c3.5-0.1,7.1,0.2,10.1,2.2 c2.1,1.4,3.5,3.5,4.4,5.8C101.2,42.2,100.9,40,100.7,38.6z"></path> <path class="st2" d="M7.4,69.6c0.8,4.7,1.5,7.5,5.8,10.1c11.2,7,32.5-5.1,40.4,8.1c0.3,0.5,0.6,0.5,0.9,0 c7.9-13.1,29.1-1.1,40.4-8.1c4.3-2.6,5-5.4,5.8-10.1c0.2-1.4,0.5-3.7-0.2-1.9c-0.9,2.3-2.2,4.4-4.4,5.8c-3,2-6.6,2.3-10.1,2.2 c-7.4-0.3-17.2-2.4-24.4,0C55,78,54.1,86.2,54.1,86.2s-1-8.2-7.6-10.4c-7.2-2.4-17-0.3-24.4,0c-3.5,0.1-7.1-0.2-10.1-2.2 c-2.1-1.4-3.5-3.5-4.4-5.8C6.9,65.9,7.2,68.2,7.4,69.6z"></path> </g> <path class="st2" d="M54.1,108.2C24.3,108.2,0,83.9,0,54.1C0,24.3,24.3,0,54.1,0s54.1,24.3,54.1,54.1 C108.2,83.9,83.9,108.2,54.1,108.2z M54.1,5.7C27.4,5.7,5.7,27.4,5.7,54.1s21.7,48.4,48.4,48.4s48.4-21.7,48.4-48.4 S80.8,5.7,54.1,5.7z"></path> </g> <path class="st2" d="M18.2,68.3c-0.1,0.4,0,0.6,0.3,0.4c0.7-0.5,1.4-1.1,2-1.8c0,0,0.1-0.1,0.1-0.1c1.9-1.9,5.6-6.9,6-7.5 c2.2-4,1.3-7.8-1.6-11c-2.6-2.9-7.6-7.6-6.1-12c0.2-0.6,0.1-0.8-0.1-0.6c-0.9,0.7-1.7,1.5-2.5,2.4c-1.9,2.3-1.5,4.7-0.3,7 c-1.1,1.3-2.8,3.5-3.5,4.9c-2.4,4.6,1.5,8.1,3.9,10.7C18.4,63,19.2,65.5,18.2,68.3z M16.5,46.1c1.4,2.3,3.5,4.3,4.9,5.9 c2.6,2.9,3.2,7.5,0.8,11.3c0.4-2.2-0.5-4.3-2.2-6.2c-1.9-2.1-4.8-4.6-4.7-7.7C15.3,48.9,15.8,47.3,16.5,46.1z"></path> <path class="st2" d="M46.2,64.9c3.7,0,10.6-0.8,11.1,4.3c0,0,0-0.1,0-0.1c0,0,0,0.1,0,0.1c0,0,0,0,0,0c0,0,0,0.1,0,0.1 c0,0.1,0,0.2,0,0.2c0.7-1.5,1.8-3.8,2.6-5.7c2.7,0,5.4,0,8.1,0c0,0,0.4,0,0.8,0.4c2.1,2.1,2.9,4.8,1.9,7.5c-0.1,0.4,0,0.6,0.3,0.4 c0.7-0.5,1.4-1.1,2-1.8c0,0,0.1-0.1,0.1-0.1c1.6-1.6,4.5-5.3,5.6-6.9c4.2-0.1,12.5-0.3,13.9,5c0,0.6,0,1.1-0.1,1.7 c1.9,0,4.7-5.7,1.3-12.2l-12.7-22l-2.7,5.7l10.7,18.7c-2-1.6-3.8-1.6-3.8-1.6l-5.1,0c0.1-2.4-1-4.7-2.8-6.7 c-2.6-2.9-7.6-7.6-6.1-12c0.2-0.6,0.1-0.8-0.1-0.6c-0.9,0.7-1.7,1.5-2.5,2.4c-1.9,2.3-1.5,4.7-0.3,7c-1.1,1.3-2.8,3.5-3.5,4.9 c-1,1.9-0.9,3.6-0.3,5.2c-1.4,0-2.8,0-4.2,0c-1-4.6-5.1-7-10.1-7c-2.4,0-3.7,0.1-6.1,0.1c-2.5,0-4.9-0.3-6.2-2.5 c-0.2-0.3-0.4-0.4-0.6-0.1c-0.6,1.3-2.5,2.9-2.1,4.1c1,3.2,4.6,3.5,7.5,3.5c2.4,0,4.3,0,6.7,0c3.5,0,7.7,2.5,8.8,6.1 c0.2,0.8-0.1,2.1-0.4,3.3c-0.7-4-4.2-6.4-10.8-6.4c-3.5,0-4.5,0.2-8,0c-3-0.2-4.3-1.2-5.3-3.4c-0.1-0.1-0.2-0.3-0.3-0.1 c-0.8,1.7-5.7,8.8-5.7,8.8S42.7,64.9,46.2,64.9z M69,49.5c1.4,2.3,3.5,4.3,4.9,5.9c2.6,2.9,3.2,7.5,0.8,11.3 c0.4-2.2-0.5-4.3-2.2-6.2c-1.9-2.1-4.8-4.6-4.7-7.7C67.8,52.3,68.2,50.7,69,49.5z"></path> </g> </svg> 