<?xml version="1.0" encoding="UTF-8"?> <!-- Creator: CorelDRAW 2017 --> <svg xmlns="http://www.w3.org/2000/svg" xmlns:xlink="http://www.w3.org/1999/xlink" xml:space="preserve" width="1.6043mm" height="4.9277mm" style="shape-rendering:geometricPrecision; text-rendering:geometricPrecision; image-rendering:optimizeQuality; fill-rule:evenodd; clip-rule:evenodd" viewBox="0 0 1.19 3.65"> <defs> <style type="text/css"> <![CDATA[ .fil0 {fill:#FEFEFE;fill-rule:nonzero} ]]> </style> </defs> <g id="Слой_x0020_1"> <metadata id="CorelCorpID_0Corel-Layer"></metadata> <path class="fil0" d="M1.19 2.34c0,0.09 -0,0.19 -0.01,0.3 -0.01,0.11 -0.02,0.22 -0.03,0.34l-0.03 0.22 -0.06 0.42c-0,0.01 -0.01,0.02 -0.03,0.02l-0.11 0c-0.02,0 -0.03,-0.01 -0.03,-0.03l0 -0.14 0.01 -0.28c0,-0.22 -0.01,-0.42 -0.04,-0.62 -0.03,-0.2 -0.07,-0.39 -0.13,-0.58 -0.05,-0.15 -0.1,-0.29 -0.16,-0.42 -0.06,-0.14 -0.13,-0.27 -0.21,-0.4 -0.04,-0.07 -0.09,-0.14 -0.15,-0.21 -0.06,-0.08 -0.12,-0.16 -0.2,-0.25 -0.01,-0.01 -0.01,-0.02 -0,-0.03l0.3 -0.66c0.01,-0.01 0.02,-0.02 0.04,-0.01 0,0 0.01,0 0.01,0.01 0.08,0.1 0.15,0.19 0.22,0.28 0.07,0.09 0.12,0.18 0.17,0.26 0.07,0.12 0.13,0.24 0.18,0.37 0.05,0.13 0.1,0.25 0.13,0.39l0 0c0.04,0.16 0.08,0.32 0.1,0.49 0.02,0.17 0.03,0.35 0.03,0.54zm-0.07 0.3c0.01,-0.11 0.01,-0.2 0.01,-0.3 0,-0.19 -0.01,-0.37 -0.03,-0.54 -0.02,-0.17 -0.05,-0.33 -0.09,-0.48l-0 -0c-0.04,-0.13 -0.08,-0.26 -0.13,-0.38 -0.05,-0.12 -0.11,-0.24 -0.18,-0.36 -0.05,-0.08 -0.11,-0.17 -0.17,-0.26 -0.06,-0.08 -0.12,-0.16 -0.19,-0.24l-0.27 0.6c0.07,0.09 0.14,0.17 0.19,0.24 0.06,0.08 0.11,0.15 0.15,0.22 0.08,0.13 0.15,0.26 0.22,0.4 0.06,0.14 0.12,0.28 0.17,0.43l0 0c0.06,0.19 0.1,0.39 0.13,0.59 0.03,0.2 0.04,0.41 0.04,0.63 -0.01,0.13 -0.01,0.27 -0.01,0.4l0.05 0 0.05 -0.39 0.03 -0.22c0.01,-0.12 0.02,-0.23 0.03,-0.34z"></path> </g> </svg> 