<?xml version="1.0" encoding="UTF-8"?> <!-- Creator: CorelDRAW 2017 --> <svg xmlns="http://www.w3.org/2000/svg" xmlns:xlink="http://www.w3.org/1999/xlink" xml:space="preserve" width="51.7992mm" height="51.7994mm" style="shape-rendering:geometricPrecision; text-rendering:geometricPrecision; image-rendering:optimizeQuality; fill-rule:evenodd; clip-rule:evenodd" viewBox="0 0 568.12 568.12"> <defs> <style type="text/css"> <![CDATA[ .fil0 {fill:#FEFEFE;fill-rule:nonzero} .fil1 {fill:#EBECEC;fill-rule:nonzero} .fil2 {fill:#D9DADA;fill-rule:nonzero} .fil3 {fill:#B2B3B3;fill-rule:nonzero} ]]> </style> </defs> <g id="Слой_x0020_1"> <metadata id="CorelCorpID_0Corel-Layer"></metadata> <g id="_2093707006320"> <path class="fil0" d="M284.06 9.43c-151.43,0 -274.63,123.2 -274.63,274.63 0,151.43 123.2,274.63 274.63,274.63 151.43,0 274.63,-123.2 274.63,-274.63 0,-151.44 -123.2,-274.63 -274.63,-274.63zm0 558.69c-156.63,0 -284.06,-127.43 -284.06,-284.06 0,-156.63 127.43,-284.06 284.06,-284.06 156.63,0 284.06,127.43 284.06,284.06 0,156.63 -127.43,284.06 -284.06,284.06z"></path> <path class="fil1" d="M479.53 446.94l-130.26 26.26 0 -156.78c-14.62,41.79 -57.07,68.25 -111.44,68.29 -54.37,0.04 -108.62,-28.09 -109.96,-90.23 -1.34,-62.13 -12.22,-93.12 -35.6,-93.75 -23.39,-0.63 -22.72,15.02 -44.22,41.23 15.24,-84.02 58.87,-117.26 119.91,-116.71 61.04,0.55 94.3,35.64 92.68,114.8 -1.47,72.1 21.94,71.87 47.85,72.93 25.1,1.04 40.03,-8.72 40.78,-40.68l0 -90.69 132.08 -25.96 -1.82 291.28z"></path> <path class="fil2" d="M469.57 238.02l11.12 23.72 -0.23 36.16 -4.54 -9.73 -11.08 59.43 -25.83 -54.67 -10.77 59.52 -26.12 -54.59 -10.47 59.6 -26.4 -54.4 -10.15 59.58 -5.84 -11.86 0 -34.36c-2.17,6.19 -4.95,12.04 -8.29,17.53l-11.65 -23.66c5.13,-1.99 9.34,-5.12 12.56,-9.67l5.94 12 10.29 -59.6 26.54 54.39 10.6 -59.62 26.24 54.57 10.9 -59.54 25.96 54.65 11.2 -59.45zm-141.53 72.75l-7.72 46.98c-1.6,1.33 -3.25,2.61 -4.95,3.85l-23.78 -47.64 -9.44 59.77 -27.36 -53.91 -9.06 59.76 -27.73 -53.74 -8.11 56.34c-0.89,-0.17 -1.77,-0.34 -2.65,-0.52l-25.99 -49.5c-1.81,12.89 -3.6,25.76 -5.34,38.65 -8.48,-4.35 -16.23,-9.75 -22.92,-16.22l-8.46 -15.78 -0.68 5.31c-5.4,-7.37 -9.64,-15.79 -12.39,-25.28l3.91 -29.74 28.75 53.22 8.37 -59.93 28.31 53.54 8.81 -59.93c9.37,17.84 18.66,35.73 27.9,53.71l9.22 -59.78 27.52 53.88 2.9 -18.09c8.59,6.58 19.69,6.81 31.29,7.28l2.58 5.14 0.84 -5.07c6.05,0.01 11.45,-0.7 16.13,-2.29z"></path> <path class="fil0" d="M463 186.19l17.93 38.04 -0.23 36.3 -11.35 -24.2 -11.2 59.45 -25.96 -54.65 -10.91 59.54 -26.24 -54.57 -10.6 59.62 -26.54 -54.38 -10.29 59.6 -5.35 -10.81c4.32,-6.38 6.74,-15.43 7.03,-27.82l0 -62.54 1.48 -8.48 26.68 54.37 10.74 -59.63 26.38 54.55 11.03 -59.55 26.09 54.63 11.33 -59.47zm-151.63 126.87l-0.56 3.39 -1.73 -3.44c0.77,0.03 1.54,0.04 2.29,0.05zm-34.66 -7.73l-2.7 16.78 -27.53 -53.89 -9.23 59.78c-9.24,-17.97 -18.54,-35.86 -27.91,-53.71l-8.81 59.93 -28.32 -53.54 -8.38 59.93 -28.76 -53.22 -3.96 30.1c-1.93,-7.08 -3.05,-14.75 -3.23,-23.03 -0.38,-17.63 -1.53,-32.74 -3.51,-45.37l1.54 -11.41 28.97 53.18 8.58 -59.97 28.51 53.51 9 -59.96c9.44,17.83 18.79,35.71 28.08,53.68l9.39 -59.81 22.67 44.09c1.72,24.01 7.49,36.42 15.59,42.92z"></path> <path class="fil3" d="M475.75 286.76l4.72 10.12 -0.32 50.6 -9.01 48.84 -25.71 -54.68 -10.65 59.5 -25.99 -54.6 -10.33 59.58 -26.27 -54.42 -10.02 59.56 -12.9 -26.36 0 -35.1 5.63 11.44 10.16 -59.58 26.4 54.4 10.47 -59.6 26.12 54.58 10.78 -59.52 25.83 54.67 11.08 -59.43zm-173.15 82.82l-3.51 -7.08 -1.49 9.59c-8.7,4.12 -18.18,7.29 -28.33,9.42l-6.67 -13.22 -2.2 14.79c-7.25,1.06 -14.78,1.6 -22.57,1.61 -2.14,0 -4.27,-0.05 -6.4,-0.13l-5.28 -10.3 -1.39 9.89c-5.15,-0.43 -10.26,-1.13 -15.29,-2.08l8.3 -57.65 27.73 53.74 9.06 -59.76 27.37 53.91 9.44 -59.77 24.35 48.77c-4.11,3.02 -8.49,5.78 -13.13,8.26zm-159.11 -25.99l0.79 -6.2 9.72 18.14c-3.87,-3.63 -7.39,-7.61 -10.52,-11.95zm32.01 26.99c1.8,-13.29 3.64,-26.54 5.51,-39.83l26.78 51c-11.42,-2.32 -22.36,-6.02 -32.29,-11.17zm144.31 -12.44l7.76 -47.23c0.74,-0.24 1.47,-0.5 2.18,-0.79l11.51 23.38c-5.62,9.35 -12.85,17.62 -21.45,24.64z"></path> <path class="fil2" d="M479.56 441.78l-0.97 5.35 -1.67 0.34 -24.42 -52.23 -10.47 59.26 -0.13 0.03 -25.76 -54.43 -10.19 59.56 -26.12 -54.44 -9.87 59.53 -20.68 -42.51 0 -34.91 13.41 27.41 10.01 -59.56 26.26 54.42 10.32 -59.58 25.98 54.61 10.64 -59.5 25.7 54.69 8.52 -46.23 -0.55 88.21zm-253.75 -57.53l0.92 -6.51 3.47 6.78c-1.47,-0.07 -2.93,-0.17 -4.39,-0.28zm35.68 -1.32l1.66 -11.15 5.02 9.97c-2.2,0.45 -4.43,0.84 -6.68,1.19zm37.26 -11.39l0.86 -5.56 2.03 4.1c-0.96,0.5 -1.92,0.99 -2.9,1.46z"></path> </g> </g> </svg> 