<?xml version="1.0" encoding="UTF-8"?> <!-- Creator: CorelDRAW 2017 --> <svg xmlns="http://www.w3.org/2000/svg" xmlns:xlink="http://www.w3.org/1999/xlink" xml:space="preserve" width="93.144mm" height="64.8984mm" style="shape-rendering:geometricPrecision; text-rendering:geometricPrecision; image-rendering:optimizeQuality; fill-rule:evenodd; clip-rule:evenodd" viewBox="0 0 2012.52 1402.23"> <defs> <style type="text/css"> <![CDATA[ .fil2 {fill:#FEFEFE;fill-rule:nonzero} .fil0 {fill:#EBECEC;fill-rule:nonzero} .fil1 {fill:#C5C6C6;fill-rule:nonzero} .fil3 {fill:#B2B3B3;fill-rule:nonzero} .fil4 {fill:#6DB136;fill-rule:nonzero} ]]> </style> </defs> <g id="Слой_x0020_1"> <metadata id="CorelCorpID_0Corel-Layer"></metadata> <path class="fil0" d="M1004.59 847.36c-185.55,0 -336.57,-150.93 -336.57,-336.58 0,-131.67 76.09,-245.95 186.6,-301.19 -0.35,3.19 -0.63,6.41 -0.85,9.67l0.04 0 -0.06 1.26c-1.78,42.43 12.13,86.95 30.49,131.5 -47.93,36.45 -78.93,94.07 -78.93,158.76 0,110.01 89.41,199.4 199.28,199.4 102.83,0 187.67,-78.17 198.24,-178.27 15.87,-10.21 30.56,-24.22 43.74,-43.68l-0.06 -0.04 0.31 -0.47c12.37,-19.05 20.76,-38.59 27.19,-58.51 6.14,-19.03 10.43,-38.33 14.79,-57.92 2.17,-9.77 4.36,-19.63 6.83,-29.49 28.98,49.7 45.6,107.44 45.6,168.98 0,185.66 -150.91,336.58 -336.65,336.58zm-78.69 -663.8c23.72,-5.71 48.41,-8.91 73.78,-9.28l3.85 6.76 0.64 1.21 0.04 -0.02c23.45,41.16 47,82.53 49.58,125.39 0.16,3.36 0.22,6.69 0.19,10.01 -15.8,-4.05 -32.34,-6.2 -49.39,-6.2 -22,0 -43.18,3.6 -62.98,10.22 -3.35,-8.34 -6.48,-16.58 -9.28,-24.68 -8.93,-25.83 -14.7,-50.51 -14.06,-72.51l0.07 -0.73 -0.03 -0 0.03 -0.42c0.9,-13.65 3.61,-26.86 7.56,-39.75zm152.46 -1.15c57.03,12.79 108.63,40.09 150.7,77.79 -3.29,2.3 -6.55,4.48 -9.85,6.59 -8.54,5.46 -17.75,10.68 -28.62,16.19 -11.08,5.62 -23.18,11.23 -37.31,17.38l-0.65 0.25c-12.66,5.09 -23.91,11.29 -34.03,18.38 0.05,-4.35 -0.02,-8.73 -0.2,-13.13l0.01 -0.78 -0.04 0 -0.04 -1.27c-2.69,-44.96 -19.75,-83.92 -39.97,-121.41zm116.02 267.32c-8.98,-27.86 -23.95,-53.07 -43.37,-74.09 7.58,-6.04 16.05,-11.15 25.68,-15.02l-0.01 -0.03 1.34 -0.59c16.65,-7.23 30.31,-13.53 41.99,-19.47 3.74,-1.9 7.34,-3.79 10.85,-5.7 -1.75,7.42 -3.43,15 -5.1,22.54 -3.9,17.54 -7.74,34.82 -12.89,50.96 -4.61,14.42 -10.39,28.33 -18.48,41.41z"></path> <path class="fil1" d="M999.68 174.28c-25.37,0.37 -50.06,3.57 -73.78,9.28 -3.95,12.89 -6.66,26.1 -7.56,39.75l-0.03 0.42 0.03 0 -0.07 0.73c-0.16,5.58 0.09,11.33 0.7,17.23 16.81,-3.23 34.18,-4.93 51.94,-4.93 22.81,0 44.96,2.79 66.14,8.04 -9.17,-21.02 -21.02,-41.82 -32.84,-62.57l-0.04 0.02 -0.64 -1.21 -3.85 -6.76zm-145.06 35.31c-110.51,55.25 -186.6,169.52 -186.6,301.19 0,185.66 151.02,336.58 336.57,336.58 185.73,0 336.65,-150.93 336.65,-336.58 0,-61.55 -16.62,-119.29 -45.6,-168.98 -2.47,9.86 -4.66,19.72 -6.83,29.49 -4.35,19.59 -8.64,38.89 -14.79,57.92 -6.43,19.92 -14.82,39.46 -27.19,58.51l-0.31 0.47 0.06 0.04c-0.73,1.07 -1.46,2.13 -2.19,3.17 0.45,6.4 0.68,12.87 0.68,19.39 0,151.46 -122.74,274.18 -274.15,274.18 -151.43,0 -274.07,-122.73 -274.07,-274.18 0,-110.5 65.4,-205.72 159.64,-249.06 -2.26,-13.9 -3.29,-27.66 -2.73,-41.2l0.06 -1.26 -0.04 -0c0.22,-3.26 0.5,-6.48 0.85,-9.67zm340.13 142.99c8.68,12.24 16.38,25.22 22.98,38.83 2.91,-11.07 5.45,-22.5 8.01,-34.05 1.67,-7.53 3.36,-15.11 5.1,-22.54 -3.51,1.91 -7.11,3.8 -10.85,5.7 -7.51,3.82 -15.84,7.78 -25.25,12.05zm34.3 -92.38c-42.07,-37.7 -93.67,-65 -150.7,-77.79 16.2,30.05 30.37,61.03 36.75,95.29 11.84,7.34 23.07,15.54 33.62,24.54 1.29,-0.56 2.59,-1.1 3.91,-1.63l0.65 -0.25c14.13,-6.14 26.23,-11.75 37.31,-17.38 10.87,-5.51 20.08,-10.73 28.62,-16.19 3.29,-2.11 6.56,-4.3 9.85,-6.59z"></path> <path class="fil2" d="M986.73 525.28c55.7,-61.07 103.52,-133.67 99.33,-219.56 -6.59,-110.1 -120.18,-192.81 -105.81,-305.72l-0.79 0.69c-27.42,73.11 -87.82,136.49 -93.39,220.59 -4.3,94.42 87.15,215.13 100.52,306.29l0.14 -2.29z"></path> <path class="fil3" d="M980.25 0l-0.8 0.68c-1.52,4.03 -3.26,8.07 -4.81,12.17 -20.17,147.92 59.22,264.55 40.55,414.91 -4.49,33.99 -14.7,66.23 -28.39,97.38 55.84,-61.07 103.44,-133.54 99.25,-219.43 -6.59,-110.1 -120.18,-192.81 -105.81,-305.72z"></path> <path class="fil4" d="M986.38 526.15c0,0.45 0.11,0.97 0.21,1.44l0.13 -2.22c-0.13,0.24 -0.23,0.56 -0.34,0.78z"></path> <path class="fil2" d="M1298.91 247.6c-47.7,75.99 -35.67,155.5 -79.17,222.52 -53.81,79.51 -141.79,44.17 -222.4,74.78 70.74,-60.24 74.36,-176.88 167.34,-214.29 63.19,-27.43 84.33,-42.4 132.58,-83.35l1.66 0.33z"></path> <path class="fil3" d="M1091.53 503.32c-24.76,19 -56.48,30.95 -91.26,38.72 -0.97,0.9 -1.81,1.89 -2.95,2.86 80.63,-30.61 168.6,4.73 222.41,-74.77 42,-64.58 32.31,-140.83 74.45,-214.52 -80.7,73.4 -111.73,176.99 -202.65,247.71z"></path> <path class="fil2" d="M304.82 1184.73c0,16.05 -2.94,31.01 -8.93,44.62 -6.2,13.83 -14.75,25.85 -25.78,36.2 -10.96,10.31 -24.21,18.61 -39.48,24.83 -15.46,6.08 -32.18,9.74 -50.84,10.98l-0.21 14.72c-0.07,6.65 -5.25,12.14 -11.85,12.14l-29.52 0c-6.58,0 -11.8,-5.49 -11.8,-12.14l0 -2.51c0,-6.75 -5.29,-12.79 -11.59,-13.67 0,0 -25.54,-2.92 -41.15,-8.7 -15.69,-5.85 -28.84,-13.96 -39.69,-24.04 -11.03,-10.18 -19.35,-22 -25.19,-35.7 -5.86,-13.74 -8.79,-28.94 -8.79,-45.44 0,-15.24 3.03,-29.51 8.88,-43.36 6,-13.61 14.76,-25.8 25.66,-36.3 11,-10.42 24.25,-19.11 39.68,-25.52 15.52,-6.6 33.07,-10.45 52.19,-11.63l0 -5.72c0,-6.71 5.22,-12.33 11.8,-12.33l29.52 0c6.6,0 11.85,4.14 11.85,9.38 0.14,5.05 5.5,9.85 11.95,10.65 0,0 25.75,3.42 41.1,10.06 15.45,6.59 28.62,14.9 39.26,25.33 10.66,10.46 18.87,22.23 24.46,35.64 5.64,13.57 8.47,27.72 8.47,42.51zm-250.75 1.97c0,21.22 6.36,38.07 19.04,50.63 12.74,12.51 30.45,20.15 53.29,22.81l0 -136.57c0,-6.79 -5.29,-11.37 -11.52,-10.21 0,0 -9.6,1.54 -18.62,5.99 -8.77,4.31 -16.4,9.68 -22.7,16.27 -6.33,6.59 -11.14,14.3 -14.47,22.99 -3.23,8.81 -5.03,18.15 -5.03,28.09zm195.78 -0.68c0,-9.25 -1.38,-18.19 -3.95,-26.82 -2.86,-8.54 -7.07,-16.34 -12.54,-23.24 -5.78,-6.76 -13.02,-12.38 -22.05,-16.73 -8.82,-4.59 -19.31,-7.15 -31.53,-7.97l0 136.46c0,6.82 5.29,11.47 11.74,10.33 0,0 6.42,-1.17 15.12,-5.15 8.42,-4.09 15.92,-9.39 22.1,-15.82 6.36,-6.43 11.39,-14.05 15.38,-22.72 3.88,-8.8 5.73,-18.15 5.73,-28.33z"></path> <path class="fil2" d="M327.99 1376.95c0,-6.82 5.19,-12.19 11.61,-12.19l2.8 0c6.46,0 11.62,-5.62 11.62,-12.42l0 -171.93c0,-6.71 -5.16,-12.23 -11.62,-12.23l-2.8 0c-6.42,0 -11.61,-5.6 -11.61,-12.4l0 -12.92c0,-6.72 5.19,-12.27 11.61,-12.27l53.07 0c6.43,0 11.71,3.98 11.71,8.92 0,4.93 0.36,9.03 0.47,9.03 0.12,0.18 4.19,-2.85 8.87,-6.33l5.05 -2.71c4.7,-2.74 10.02,-4.95 15.11,-6.55 5.21,-1.87 10.44,-3.2 15.38,-4.25 4.9,-0.79 9.49,-1.38 13.56,-1.38 14.66,0 26.97,2.7 36.8,7.97 9.96,5.27 17.67,12.28 23.54,21.21 5.98,8.87 10.3,19.19 12.75,31.05 2.61,11.69 3.76,24.35 3.76,37.8 0,15.35 -1.27,29.5 -4.1,42.75 -2.92,13.22 -7.47,24.64 -13.93,33.98 -6.31,9.37 -14.73,16.9 -25.03,22.14 -10.47,5.4 -23.1,8.1 -38,8.1 -6.44,0 -14.28,-0.95 -23.9,-2.6 -9.5,-1.72 -18.5,-5.05 -27.3,-9.49l0 32.1c0,6.8 5.46,12.42 11.85,12.42l4.54 0c6.46,0 11.73,5.37 11.73,12.19l0 13.02c0,6.67 -5.27,12.26 -11.73,12.26l-84.2 0c-6.42,0 -11.61,-5.59 -11.61,-12.26l0 -13.02zm118.78 -86.09c4.83,0 9.51,-0.96 14.18,-2.7 4.6,-1.77 8.71,-5.07 12.32,-9.7 3.64,-4.72 6.53,-11.31 8.89,-19.61 2.34,-8.29 3.52,-19.18 3.52,-32.66 0,-11.85 -0.95,-21.44 -2.93,-28.84 -1.97,-7.34 -4.71,-13.21 -8.07,-17.33 -3.57,-4.21 -7.51,-7.01 -12.18,-8.43 -4.59,-1.53 -9.65,-2.23 -15.02,-2.23 -6.7,0 -13.86,1.54 -21.59,4.8 -7.69,3.18 -13.78,6.7 -18.5,10.58l0 82.02c0,6.73 4.81,14.86 10.48,18.03 0,0 0.33,0 7.57,2.45 7.28,2.35 14.45,3.64 21.32,3.64z"></path> <path class="fil2" d="M660.89 1125.65c18.18,0 32.69,3.32 43.58,9.65 11.03,6.32 19.34,14.15 25.09,23.73 5.74,9.65 9.54,20.07 11.41,31.3 1.71,11.24 2.65,21.94 2.65,31.88l0 7.74c0,6.79 -5.39,12.43 -11.85,12.43l-97.56 0c-6.58,0 -11.11,5.35 -10.56,12.17 0,0 1.88,16.83 8.79,24.8 6.92,8.09 19.2,12.19 36.75,12.19 10.08,0 19.84,-1.04 29.41,-3.14 9.42,-2.22 18.99,-5.28 28.72,-9.38l7.74 22.35c2.23,6.52 -0.93,13.85 -6.79,16.67 0,0 -14.57,7.05 -28.03,9.72 -13.43,3.02 -26.45,4.59 -39.36,4.59 -18.58,0 -34.07,-2.83 -45.75,-8.68 -12.1,-5.62 -21.36,-13.48 -28.27,-22.93 -6.78,-9.53 -11.5,-20.53 -14.05,-32.71 -2.55,-12.19 -3.77,-24.97 -3.77,-38.19 0,-10.63 1.27,-22.27 3.99,-34.57 2.7,-12.07 7.51,-23.45 14.45,-33.73 6.89,-10.3 16.37,-18.98 28.18,-25.79 11.97,-6.7 27.08,-10.08 45.22,-10.08zm-0.22 39.26c-6.42,0 -11.96,1.27 -16.36,3.87 -4.49,2.34 -8.33,5.75 -11.41,9.76 -3.02,3.98 -5.48,8.52 -7,13.57 -1.56,5.02 -2.45,10.18 -2.71,15.56l59.42 0c6.44,0 11.56,-4.92 11.23,-11.01l-1.15 -5.12c-1.21,-5.21 -3.09,-9.87 -5.53,-13.63 -2.32,-3.99 -5.83,-7.14 -10.32,-9.47 -4.28,-2.37 -9.74,-3.54 -16.16,-3.54z"></path> <path class="fil2" d="M993.85 1143.5c0,-7.05 5.41,-12.42 11.85,-12.42l67.56 0c6.45,0 11.95,5.37 11.95,12.42l0 11.09c0,6.81 -4.93,12.33 -11.02,12.33 -5.86,0 -10.63,5.6 -10.63,12.29l0 100.36c0,6.83 5.27,12.34 11.81,12.34 6.32,0 11.59,5.62 11.59,12.4l0 11.78c0,6.65 -5.27,12.13 -11.59,12.13l-292.72 0c-6.5,0 -11.87,-5.49 -11.87,-12.13l0 -11.78c0,-6.78 5.29,-12.4 11.45,-12.4 6.37,0 11.26,-5.52 11.26,-12.34l0 -100.36c0,-6.69 -5.16,-12.29 -11.34,-12.29 -6.43,0 -11.72,-5.51 -11.72,-12.33l0 -11.09c0,-7.05 5.39,-12.42 11.81,-12.42l53.11 0c6.42,0 11.66,5.37 11.66,12.42l0 136.07c0,6.83 5.31,12.34 11.74,12.34l30.71 0c6.59,0 11.72,-5.52 11.72,-12.34l0 -100.36c0,-6.69 -3.54,-12.29 -7.83,-12.29 -4.35,0 -7.86,-5.51 -7.86,-12.33l0 -11.09c0,-7.05 5.28,-12.42 11.84,-12.42l61.7 0c6.49,0 11.86,5.37 11.86,12.42l0 11.09c0,6.81 -3.61,12.33 -8.21,12.33 -4.33,0 -7.96,5.6 -7.96,12.29l0 100.36c0,6.83 5.29,12.34 11.59,12.34l32.08 0c6.31,0 11.75,-5.52 11.75,-12.34l0 -100.36c0,-6.69 -3.79,-12.29 -8.1,-12.29 -4.6,0 -8.2,-5.51 -8.2,-12.33l0 -11.09z"></path> <path class="fil1" d="M1194.41 1245.99c0,5.41 -0.95,10.53 -2.84,15.32 -1.94,4.7 -4.54,8.92 -7.97,12.44 -3.37,3.48 -7.47,6.45 -11.91,8.32 -4.59,1.99 -9.36,3.02 -14.39,3.02 -4.98,0 -9.75,-1.04 -14.23,-3.02 -4.54,-1.88 -8.52,-4.84 -11.88,-8.32 -3.45,-3.52 -6,-7.74 -8.12,-12.44 -1.78,-4.79 -2.69,-9.91 -2.69,-15.32 0,-5.63 0.91,-10.64 2.69,-15.48 2.11,-4.82 4.66,-8.8 8.12,-12.39 3.36,-3.57 7.33,-6.37 11.88,-8.33 4.48,-2.03 9.25,-3.05 14.23,-3.05 5.03,0 9.8,1.03 14.39,3.05 4.44,1.95 8.54,4.76 11.91,8.33 3.43,3.59 6.03,7.57 7.97,12.39 1.89,4.84 2.84,9.85 2.84,15.48z"></path> <path class="fil0" d="M1682.1 1062.88c0,5.63 -1.08,10.8 -2.74,15.48 -2.1,4.77 -4.64,8.76 -8.07,12.43 -3.39,3.48 -7.47,6.33 -11.94,8.42 -4.56,1.88 -9.37,3.02 -14.28,3.02 -5.07,0 -9.85,-1.14 -14.4,-3.02 -4.54,-2.1 -8.53,-4.95 -11.87,-8.42 -3.37,-3.67 -5.92,-7.66 -7.96,-12.43 -1.94,-4.68 -2.93,-9.85 -2.93,-15.48 0,-5.36 0.98,-10.53 2.93,-15.2 2.04,-4.73 4.59,-8.92 7.96,-12.42 3.34,-3.54 7.33,-6.36 11.87,-8.46 4.55,-1.97 9.33,-3.05 14.4,-3.05 4.92,0 9.73,1.08 14.28,3.05 4.47,2.1 8.55,4.92 11.94,8.46 3.43,3.5 5.97,7.69 8.07,12.42 1.66,4.66 2.74,9.84 2.74,15.2z"></path> <path class="fil2" d="M1366.37 1161.4c0,6.88 -3.06,12.29 -6.78,12.29 -3.87,0 -6.91,-5.41 -6.91,-12.29l0 -2.38c0,-6.72 -5.27,-12.4 -11.73,-12.4l-27.3 0c-6.39,0 -11.68,5.68 -11.68,12.4l0 142.03c0,6.83 5.28,12.27 11.68,12.27l1.88 0c6.41,0 11.87,3.39 11.87,7.55 0,3.96 -5.46,7.35 -11.87,7.35l-41.93 0c-6.34,0 -11.84,-3.38 -11.84,-7.35 0,-4.15 5.5,-7.55 11.84,-7.55l1.16 0c6.34,0 11.73,-5.44 11.73,-12.27l0 -142.03c0,-6.72 -5.39,-12.4 -11.73,-12.4l-28.13 0c-6.27,0 -11.72,5.68 -11.72,12.4l0 2.38c0,6.88 -3.03,12.29 -6.75,12.29 -3.66,0 -6.8,-5.41 -6.8,-12.29l0 -17.24c0,-6.76 5.35,-12.41 11.94,-12.41l121.16 0c6.3,0 11.65,5.65 11.65,12.41l0.27 17.24z"></path> <path class="fil2" d="M1513.71 1301.05c0,6.82 5.36,12.28 11.77,12.28l7 0c6.33,0 11.94,2.36 12.33,5.27 0.18,2.94 -3.8,6.91 -9.15,8.8l-5.87 0.81c-6.08,0.95 -10.73,1.29 -14.53,1.29 -5.86,0 -10.19,-1.29 -13.2,-3.84 -2.97,-2.61 -4.49,-7.64 -4.49,-15.58 0,-2.93 -4.35,-1.99 -9.47,2.01 0,0 -5.78,4.17 -12.68,7.69 -6.77,3.53 -13.02,6.15 -18.61,7.62 -5.62,1.77 -10.41,2.58 -14.77,2.92 -4.34,0.24 -7.99,0.38 -10.99,0.38 -10.07,0 -18.64,-1.62 -25.31,-5.18 -6.78,-3.51 -11.95,-7.96 -15.92,-13.34 -3.99,-5.36 -6.83,-11.23 -8.45,-17.71 -1.4,-6.53 -2.13,-12.51 -2.13,-18.14 0,-9.16 1.66,-17.22 5.05,-24.1 3.29,-7.17 7.74,-13 13.49,-17.58 5.85,-4.81 12.74,-8.44 20.81,-10.78 8.12,-2.49 16.68,-3.98 25.81,-4.58l41.45 -2.1c6.46,-0.24 11.72,-4.7 11.72,-9.76 0,-4.9 0,-14.5 -0.59,-21.31 0,0 -0.11,-5.69 -1.41,-12.51 -1.52,-6.89 -3.82,-12.26 -7.16,-16.63 -3.26,-4.09 -7.81,-7.17 -13.57,-8.87 -5.63,-2.05 -12.68,-2.95 -21.05,-2.95 -9.4,0 -18.77,1.07 -28.61,3.26 -9.84,2.25 -19.83,5.05 -29.53,8.77l-0.46 -1.38c-2.36,-6.33 0.94,-13.34 6.88,-15.67 0,0 10.77,-4.38 22.18,-6.82 11.24,-2.71 22.21,-3.86 33.02,-3.86 18.13,0 32.2,4.82 41.94,14.39 9.74,9.51 14.48,25.77 14.48,48.98l0 108.24zm-59.73 -68.55c-6.43,0.24 -16.99,1.54 -23.44,2.7 0,0 -14.86,2.82 -22.43,10.21 -7.78,7.35 -11.77,17.2 -11.77,29.13 0,27.78 13.83,41.61 41.27,41.61 18.98,0 38.86,-9.34 59.96,-28.23l0 -45.34c0,-6.81 -5.26,-12.08 -11.72,-11.59l-31.87 1.51z"></path> <path class="fil2" d="M1707.49 1171.59c0,-6.77 -0.11,-12.39 -0.21,-12.39 -0.21,0 -3.42,4.55 -7.04,10.32 0,0 -1.99,3.26 -6.2,10.16 -3.99,6.88 -8.32,13.7 -12.67,20.39 -1.53,2.34 -4.33,6.91 -8.53,13.45 -4.27,6.59 -9.15,14.28 -14.57,22.97 -5.34,8.93 -11.11,17.95 -17.2,27.64 -6.21,9.76 -11.96,18.97 -17.33,27.66 -5.52,8.65 -10.08,16.4 -14.18,23.06 -4.22,6.46 -6.93,11.08 -8.54,13.37l-3.28 0c-6.44,0 -11.74,-5.5 -11.74,-12.14l0 -157.86c0,-6.65 -5.25,-12.29 -11.58,-12.29l-5.54 0c-6.41,0 -11.7,-3.17 -11.7,-6.82 0,-3.82 5.29,-6.97 11.7,-6.97l20.73 0c6.59,0 11.85,5.59 11.85,12.42l0 143.26c0,6.82 0.26,12.17 0.48,12.17 0.34,0 3.39,-4.56 6.99,-10.33l10.68 -16.81c3.54,-5.69 9.24,-14.9 12.92,-20.57l68.67 -109.72c3.47,-5.62 10.01,-10.41 14.38,-10.41 4.41,0 8.05,5.59 8.05,12.42l0 156.5c0,6.82 5.37,12.28 11.87,12.28l4.54 0c6.56,0 11.72,2.36 11.72,5.26 0,2.94 -4.09,6.92 -8.91,8.93l-4.91 1.07c-4.79,0.91 -9.14,1.38 -12.62,1.38 -5.99,0 -10.58,-1.31 -13.51,-4.04 -2.94,-2.73 -4.35,-7.91 -4.35,-15.86l0 -138.49z"></path> <path class="fil2" d="M1968.6 1176.42c0,-6.82 -0.23,-12.34 -0.33,-12.34 -0.24,0 -1.61,3.08 -3.16,6.82l-1.77 3.41c-2.01,3.37 -3.5,7 -4.88,10.75 -9.85,21.2 -19.62,42.41 -29.44,63.39 -9.81,20.99 -19.32,42.03 -29.14,63.39l-3.31 0c-6.43,0 -14.05,-5.03 -16.99,-11.05 0,0 -15.55,-31.97 -26.22,-53.29 -10.56,-21.17 -20.86,-42.65 -30.79,-64.42l-5.06 -10.08c-2.91,-6.1 -5.25,-10.9 -5.53,-10.9 0,0 -0.22,5.56 -0.22,12.21l0 141.77c0,6.65 -3.25,12.13 -7.58,12.13 -4.02,0 -7.38,-5.49 -7.38,-12.13l0 -157.86c0,-6.65 -5.19,-12.28 -11.72,-12.28l-5.07 0c-6.46,0 -11.73,-3.17 -11.73,-6.82 0,-3.82 5.27,-6.98 11.73,-6.98l22.4 0c6.4,0 14.14,5.04 16.97,10.96 0,0 16.05,33.32 26.58,55.67 10.56,22.38 21.22,44.73 32,67.49l8.91 18.76c2.93,6.08 5.27,10.98 5.49,10.98 0,0 2,-4.47 4.43,-10.17l2.36 -4.95c2.25,-5.02 4.55,-9.93 6.82,-15.11 1.53,-3.17 3.99,-8.3 6.99,-15.22 3.32,-6.83 6.82,-14.43 10.81,-23.09 4.1,-8.66 8.3,-17.68 12.69,-27.31 4.2,-9.6 8.5,-18.85 12.73,-27.65 3.98,-8.89 7.6,-16.73 10.89,-23.97 3.17,-7.05 5.63,-12.59 7.49,-16.41l31.29 0c6.55,0 11.72,3.17 11.72,6.98 0,3.65 -5.17,6.82 -11.72,6.82l-3.04 0c-6.44,0 -11.73,5.63 -11.73,12.28l0 142.83c0,6.84 5.29,12.29 11.73,12.29l4.59 0c6.42,0 11.83,1.78 11.83,3.61l0 1.88c0,1.65 0.08,3.53 0.3,4.93 -4.42,2.22 -9.1,3.76 -13.93,4.82 -4.8,0.92 -9.02,1.38 -12.63,1.38 -5.87,0 -10.22,-1.3 -12.77,-4.04 -2.84,-2.73 -4.22,-7.9 -4.6,-15.85l0 -133.65z"></path> </g> </svg> 