<?xml version="1.0" encoding="UTF-8"?> <!-- Creator: CorelDRAW 2017 --> <svg xmlns="http://www.w3.org/2000/svg" xmlns:xlink="http://www.w3.org/1999/xlink" xml:space="preserve" width="2.2015mm" height="4.9021mm" style="shape-rendering:geometricPrecision; text-rendering:geometricPrecision; image-rendering:optimizeQuality; fill-rule:evenodd; clip-rule:evenodd" viewBox="0 0 2.24 4.98"> <defs> <style type="text/css"> <![CDATA[ .fil0 {fill:#FEFEFE;fill-rule:nonzero} ]]> </style> </defs> <g id="Слой_x0020_1"> <metadata id="CorelCorpID_0Corel-Layer"></metadata> <path class="fil0" d="M2.23 4.1l-0.26 0.85c-0.01,0.02 -0.02,0.03 -0.04,0.03 -0.13,0 -0.25,-0 -0.37,-0.01 -0.12,-0.01 -0.24,-0.02 -0.36,-0.04 -0.15,-0.02 -0.3,-0.05 -0.42,-0.09l-0 -0c-0.13,-0.04 -0.24,-0.08 -0.33,-0.13 -0.12,-0.06 -0.21,-0.13 -0.27,-0.2 -0.06,-0.08 -0.09,-0.17 -0.09,-0.26 0,-0.17 0.05,-0.34 0.15,-0.51 0.04,-0.07 0.1,-0.15 0.16,-0.23 0.07,-0.08 0.14,-0.17 0.23,-0.26 0.05,-0.05 0.11,-0.12 0.2,-0.2l0.28 -0.27c-0.19,-0.07 -0.38,-0.14 -0.57,-0.22l-0.09 -0.04c-0.14,-0.06 -0.25,-0.13 -0.33,-0.2 -0.08,-0.07 -0.12,-0.15 -0.12,-0.22 0,-0.11 0.03,-0.23 0.08,-0.36 0.05,-0.13 0.13,-0.26 0.24,-0.4 0.08,-0.11 0.18,-0.23 0.3,-0.35 0.12,-0.12 0.25,-0.25 0.41,-0.39 0.11,-0.1 0.22,-0.19 0.34,-0.29 0.12,-0.1 0.24,-0.19 0.37,-0.29 0.02,-0.01 0.04,-0.01 0.05,0.01 0.01,0.01 0.01,0.02 0.01,0.03l-0.13 0.81c-0,0.01 -0.01,0.03 -0.02,0.03 -0.16,0.06 -0.29,0.11 -0.39,0.15 -0.1,0.04 -0.18,0.07 -0.23,0.1 -0.12,0.06 -0.21,0.11 -0.27,0.17l-0 0c-0.05,0.05 -0.08,0.09 -0.08,0.13 0,0.03 0.02,0.07 0.07,0.11 0.05,0.04 0.12,0.09 0.22,0.13 0.19,0.07 0.41,0.15 0.6,0.22 0.11,0.04 0.19,0.09 0.25,0.13 0.06,0.05 0.1,0.1 0.1,0.15 0,0.05 -0.03,0.11 -0.08,0.19 -0.05,0.07 -0.12,0.16 -0.22,0.26l-0.53 0.55c-0.09,0.11 -0.16,0.2 -0.21,0.28 -0.04,0.08 -0.07,0.14 -0.07,0.19 0,0.05 0.04,0.1 0.12,0.15 0.09,0.05 0.23,0.1 0.42,0.15 0.12,0.03 0.26,0.05 0.4,0.08 0.14,0.02 0.29,0.04 0.46,0.05 0.02,0 0.04,0.02 0.04,0.04l-0 0.01zm-0.33 0.8l0.24 -0.78c-0.15,-0.01 -0.28,-0.03 -0.41,-0.05 -0.14,-0.02 -0.28,-0.05 -0.41,-0.08 -0.19,-0.05 -0.34,-0.1 -0.44,-0.15 -0.11,-0.06 -0.16,-0.14 -0.16,-0.22 0,-0.06 0.03,-0.14 0.08,-0.23 0.05,-0.08 0.12,-0.18 0.22,-0.29 0.17,-0.18 0.37,-0.36 0.53,-0.55 0.09,-0.1 0.16,-0.18 0.21,-0.25 0.04,-0.06 0.06,-0.11 0.06,-0.15 0,-0.02 -0.02,-0.05 -0.06,-0.08 -0.05,-0.04 -0.13,-0.08 -0.23,-0.12 -0.18,-0.07 -0.42,-0.15 -0.6,-0.22 -0.11,-0.05 -0.19,-0.1 -0.25,-0.14 -0.06,-0.05 -0.09,-0.11 -0.09,-0.16 0,-0.06 0.03,-0.12 0.1,-0.18l0 -0c0.06,-0.06 0.16,-0.12 0.29,-0.18 0.05,-0.03 0.13,-0.06 0.24,-0.1 0.1,-0.04 0.22,-0.09 0.37,-0.14l0.11 -0.69c-0.1,0.08 -0.2,0.15 -0.29,0.23 -0.12,0.1 -0.23,0.2 -0.34,0.29 -0.15,0.14 -0.29,0.26 -0.4,0.39 -0.12,0.12 -0.21,0.24 -0.29,0.34 -0.1,0.14 -0.18,0.27 -0.23,0.39 -0.05,0.12 -0.07,0.23 -0.07,0.33 0,0.05 0.03,0.11 0.09,0.16 0.07,0.06 0.17,0.12 0.31,0.18l0.09 0.03c0.21,0.08 0.41,0.16 0.62,0.24 0.01,0 0.01,0.01 0.01,0.01 0.01,0.02 0.01,0.04 -0,0.05 -0.13,0.12 -0.24,0.23 -0.32,0.31 -0.09,0.08 -0.15,0.15 -0.2,0.2l-0 0c-0.09,0.09 -0.16,0.18 -0.22,0.26 -0.06,0.08 -0.12,0.16 -0.16,0.22 -0.09,0.16 -0.14,0.32 -0.14,0.47 0,0.08 0.03,0.15 0.08,0.21 0.05,0.07 0.14,0.13 0.25,0.18 0.09,0.05 0.2,0.09 0.32,0.12l0 0c0.12,0.04 0.26,0.06 0.41,0.09 0.11,0.02 0.23,0.03 0.36,0.04 0.11,0.01 0.22,0.01 0.34,0.01z"></path> </g> </svg> 