<?xml version="1.0" encoding="UTF-8"?> <!-- Creator: CorelDRAW 2017 --> <svg xmlns="http://www.w3.org/2000/svg" xmlns:xlink="http://www.w3.org/1999/xlink" xml:space="preserve" width="3.5432mm" height="4.9869mm" style="shape-rendering:geometricPrecision; text-rendering:geometricPrecision; image-rendering:optimizeQuality; fill-rule:evenodd; clip-rule:evenodd" viewBox="0 0 5.79 8.15"> <defs> <style type="text/css"> <![CDATA[ .fil0 {fill:#FEFEFE;fill-rule:nonzero} ]]> </style> </defs> <g id="Слой_x0020_1"> <metadata id="CorelCorpID_0Corel-Layer"></metadata> <path class="fil0" d="M5.79 0.74c0,0.29 -0.03,0.54 -0.08,0.76 -0.06,0.22 -0.14,0.41 -0.25,0.57l-0 0c-0.11,0.16 -0.26,0.27 -0.43,0.35 -0.17,0.08 -0.38,0.12 -0.61,0.12 -0.13,0 -0.26,-0.01 -0.37,-0.03 -0.12,-0.02 -0.22,-0.05 -0.32,-0.1 -0.1,-0.04 -0.19,-0.1 -0.26,-0.16 -0.05,-0.04 -0.1,-0.09 -0.13,-0.15 -0.07,0.1 -0.14,0.18 -0.22,0.26 -0.1,0.1 -0.21,0.18 -0.34,0.25 -0.12,0.07 -0.26,0.12 -0.4,0.15 -0.12,0.03 -0.24,0.04 -0.37,0.05 0.06,0.13 0.12,0.24 0.17,0.34 0.06,0.13 0.11,0.24 0.15,0.33l0 0c0.07,0.16 0.12,0.33 0.17,0.49 0.05,0.17 0.1,0.35 0.13,0.53l0 0c0.03,0.18 0.06,0.39 0.08,0.61 0.02,0.22 0.03,0.45 0.03,0.71 0,0.14 -0,0.28 -0.01,0.42 -0.01,0.14 -0.02,0.28 -0.03,0.41 -0.01,0.13 -0.03,0.32 -0.07,0.56 -0.03,0.23 -0.08,0.52 -0.13,0.87 -0,0.03 -0.03,0.05 -0.06,0.05l-0.28 0c-0.03,0 -0.06,-0.03 -0.06,-0.06l0 -0c0,-0.49 -0.02,-0.94 -0.05,-1.34 -0.03,-0.4 -0.08,-0.76 -0.14,-1.08 -0.06,-0.31 -0.15,-0.62 -0.26,-0.93 -0.11,-0.31 -0.24,-0.61 -0.39,-0.9 -0.12,-0.22 -0.28,-0.5 -0.48,-0.83 -0.21,-0.33 -0.46,-0.71 -0.75,-1.14 -0.01,-0.02 -0.01,-0.04 -0.01,-0.06l0.49 -1.6c0.01,-0.03 0.04,-0.05 0.08,-0.04 0.02,0 0.03,0.01 0.04,0.03 0.12,0.19 0.23,0.36 0.36,0.5 0.12,0.14 0.25,0.26 0.38,0.35 0.15,0.11 0.3,0.19 0.46,0.24 0.16,0.05 0.33,0.08 0.51,0.08 0.18,0 0.34,-0.03 0.49,-0.09 0.14,-0.06 0.26,-0.15 0.36,-0.28l0 -0c0.09,-0.11 0.16,-0.24 0.22,-0.39 0.06,-0.16 0.11,-0.33 0.15,-0.54 0.01,-0.03 0.03,-0.05 0.06,-0.05l0.24 -0c0.03,0 0.06,0.03 0.06,0.06 0.02,0.2 0.05,0.37 0.09,0.51l0 0c0.04,0.14 0.09,0.24 0.14,0.32l0 0c0.06,0.07 0.13,0.13 0.21,0.17 0.08,0.04 0.18,0.06 0.29,0.06 0.44,0 0.7,-0.36 0.78,-1.07 0,-0.03 0.03,-0.05 0.06,-0.05l0.24 0c0.03,0 0.06,0.03 0.06,0.06l0 0.18 0.01 0.25c0.01,0.14 0.02,0.23 0.02,0.25zm-0.2 0.73c0.05,-0.21 0.08,-0.45 0.08,-0.73l-0.03 -0.5 -0 -0.12 -0.12 0c-0.1,0.75 -0.4,1.12 -0.9,1.12 -0.13,0 -0.24,-0.02 -0.34,-0.07 -0.1,-0.05 -0.18,-0.11 -0.25,-0.2l-0 -0c-0.07,-0.09 -0.12,-0.21 -0.17,-0.36l-0 -0c-0.04,-0.13 -0.07,-0.3 -0.09,-0.48l-0.13 0c-0.04,0.19 -0.08,0.36 -0.14,0.51 -0.07,0.17 -0.15,0.31 -0.24,0.42l-0 0c-0.11,0.14 -0.25,0.24 -0.41,0.31 -0.16,0.07 -0.34,0.1 -0.54,0.1 -0.19,0 -0.37,-0.03 -0.55,-0.09 -0.17,-0.06 -0.34,-0.14 -0.49,-0.26 -0.14,-0.1 -0.27,-0.23 -0.4,-0.37 -0.1,-0.12 -0.2,-0.25 -0.3,-0.4l-0.44 1.45c0.29,0.43 0.53,0.8 0.74,1.12 0.21,0.33 0.37,0.61 0.49,0.84 0.15,0.3 0.29,0.61 0.4,0.92 0.11,0.31 0.2,0.63 0.26,0.95 0.06,0.32 0.11,0.68 0.14,1.09 0.03,0.39 0.05,0.82 0.05,1.29l0.16 0c0.05,-0.32 0.09,-0.59 0.12,-0.82 0.03,-0.23 0.06,-0.42 0.07,-0.55 0.01,-0.13 0.02,-0.27 0.03,-0.41 0.01,-0.13 0.01,-0.27 0.01,-0.41 0,-0.25 -0.01,-0.48 -0.03,-0.7 -0.02,-0.22 -0.04,-0.41 -0.08,-0.59l-0 -0c-0.04,-0.18 -0.08,-0.35 -0.13,-0.52 -0.05,-0.17 -0.11,-0.33 -0.17,-0.48l-0 -0c-0.04,-0.09 -0.08,-0.2 -0.14,-0.32 -0.06,-0.12 -0.13,-0.27 -0.21,-0.42 -0.01,-0.01 -0.01,-0.02 -0.01,-0.03 0,-0.03 0.03,-0.06 0.06,-0.06 0.16,0 0.31,-0.02 0.45,-0.05 0.14,-0.03 0.26,-0.08 0.37,-0.14 0.11,-0.06 0.22,-0.14 0.31,-0.23 0.09,-0.09 0.18,-0.2 0.25,-0.32 0.01,-0.01 0.01,-0.02 0.02,-0.02 0.03,-0.02 0.07,-0.01 0.08,0.02 0.04,0.08 0.1,0.14 0.16,0.2 0.07,0.06 0.14,0.1 0.23,0.14 0.09,0.04 0.19,0.07 0.3,0.09 0.11,0.02 0.22,0.03 0.35,0.03 0.22,0 0.4,-0.04 0.56,-0.11 0.15,-0.07 0.28,-0.17 0.38,-0.31l0 -0c0.1,-0.14 0.18,-0.32 0.23,-0.52z"></path> </g> </svg> 