<svg xmlns="http://www.w3.org/2000/svg" viewBox="0 0 106.703 56.099" width="106.703" height="56.099">
<g transform="translate(-263.304,-28.974)">
<path d="M 277.538 77.010 L 268.172 77.010 L 269.732 72.166 L 277.322 72.166 L 278.479 68.667 L 270.890 68.667 L 273.150 61.670 L 278.479 57.955 L 287.845 57.955 L 286.311 62.666 L 278.722 62.666 L 277.780 65.545 L 285.369 65.545 L 283.082 72.650 L 277.538 77.010 Z" fill="#1A1D24" fill-rule="nonzero"/>
<path d="M 292.528 72.166 L 295.031 72.166 L 298.126 62.666 L 295.623 62.666 L 292.528 72.166 Z M 285.073 77.010 L 290.105 61.455 L 295.353 57.956 L 305.554 57.956 L 300.924 72.166 L 297.802 74.749 L 301.140 74.749 L 298.717 78.948 L 295.327 77.010 L 285.073 77.010 Z" fill="#1A1D24" fill-rule="nonzero"/>
<path d="M 302.298 77.010 L 308.487 57.955 L 314.462 57.955 L 309.833 72.166 L 312.336 72.166 L 316.965 57.955 L 322.940 57.955 L 316.750 77.010 L 302.298 77.010 Z" fill="#1A1D24" fill-rule="nonzero"/>
<path d="M 331.740 66.541 L 333.274 61.885 L 329.694 65.168 L 329.237 66.541 L 331.740 66.541 Z M 319.952 77.010 L 324.096 64.281 L 331.282 57.956 L 340.432 57.956 L 334.243 77.010 L 328.349 77.010 L 330.744 69.636 L 328.241 69.636 L 325.846 77.010 L 319.952 77.010 Z" fill="#1A1D24" fill-rule="nonzero"/>
<path d="M 349.906 64.684 L 348.157 62.343 L 344.954 72.166 L 347.457 72.166 L 349.906 64.684 Z M 337.499 77.010 L 343.689 57.955 L 352.113 57.955 L 356.392 62.827 L 351.790 77.010 L 337.499 77.010 Z" fill="#1A1D24" fill-rule="nonzero"/>
<path d="M 284.179 44.958 L 286.964 43.750 L 287.917 40.889 L 285.520 40.889 L 284.179 44.958 Z M 275.432 54.511 L 281.366 36.246 L 295.064 36.246 L 291.890 46.023 L 282.474 50.203 L 281.081 54.511 L 275.432 54.511 Z" fill="#1A1D24" fill-rule="nonzero"/>
<path d="M 279.128 36.086 C 278.917 36.071 271.336 35.505 267.304 32.974 C 267.858 35.527 268.969 37.748 272.411 39.951 C 271.206 40.877 267.304 38.932 267.304 38.932 C 267.525 43.484 273.663 45.210 272.913 45.297 C 271.745 45.632 270.556 45.560 268.803 44.910 C 269.460 48.436 272.882 49.784 274.532 50.232 L 279.128 36.086 Z" fill="#E30513" fill-rule="nonzero"/>
<path d="M 300.817 43.649 L 303.422 43.030 L 304.144 40.760 L 301.746 40.760 L 300.817 43.649 Z M 291.632 54.510 L 297.566 36.246 L 311.265 36.246 L 308.253 45.489 L 303.733 46.510 L 306.881 49.731 L 305.334 54.510 L 299.681 54.510 L 301.513 48.886 L 299.708 47.081 L 297.283 54.510 L 291.632 54.510 Z" fill="#1A1D24" fill-rule="nonzero"/>
<path d="M 315.650 49.506 L 318.049 49.506 L 320.861 40.889 L 318.462 40.889 L 315.650 49.506 Z M 308.375 54.511 L 313.225 39.600 L 318.255 36.246 L 328.007 36.246 L 323.157 51.157 L 318.127 54.511 L 308.375 54.511 Z" fill="#1A1D24" fill-rule="nonzero"/>
<path d="M 330.923 54.510 L 325.195 54.510 L 331.129 36.245 L 343.280 36.245 L 341.810 40.760 L 335.386 40.760 L 334.405 43.752 L 337.527 43.752 L 336.546 46.771 L 333.425 46.771 L 330.923 54.510 Z" fill="#1A1D24" fill-rule="nonzero"/>
<path d="M 345.498 54.510 L 339.771 54.510 L 345.705 36.245 L 357.855 36.245 L 356.385 40.760 L 349.961 40.760 L 348.981 43.752 L 352.102 43.752 L 351.122 46.771 L 348.001 46.771 L 345.498 54.510 Z" fill="#1A1D24" fill-rule="nonzero"/>
<path d="M 354.345 54.510 L 360.279 36.245 L 366.007 36.245 L 358.608 59.019 L 354.345 54.510 Z" fill="#1A1D24" fill-rule="nonzero"/>
<path d="M 294.001 71.681 L 294.822 71.681 L 297.067 64.791 L 296.246 64.791 L 294.001 71.681 Z M 295.183 72.177 L 293.318 72.177 L 295.886 64.295 L 297.750 64.295 L 295.183 72.177 Z M 295.897 57.967 C 295.736 57.967 295.581 58.014 295.447 58.102 L 290.200 61.601 C 290.049 61.702 289.935 61.853 289.879 62.025 L 284.846 77.581 C 284.767 77.827 284.810 78.098 284.962 78.306 C 285.113 78.515 285.358 78.639 285.616 78.639 L 294.788 78.639 L 297.992 80.471 C 298.368 80.684 298.881 80.542 299.094 80.172 L 301.597 75.742 L 301.397 75.024 C 301.243 74.854 301.040 74.761 300.821 74.761 L 299.726 74.761 L 301.116 73.609 C 301.234 73.512 301.322 73.383 301.370 73.237 L 305.977 59.094 C 306.022 58.982 306.041 58.880 306.041 58.776 C 306.041 58.330 305.680 57.967 305.235 57.967 L 295.897 57.967 Z M 298.393 81.073 C 298.167 81.073 297.943 81.014 297.746 80.901 L 294.656 79.135 L 285.616 79.135 C 285.200 79.135 284.806 78.934 284.561 78.598 C 284.315 78.262 284.246 77.825 284.374 77.429 L 289.407 61.873 C 289.497 61.594 289.681 61.351 289.925 61.189 L 295.172 57.690 C 295.388 57.547 295.638 57.471 295.897 57.471 L 305.230 57.471 C 305.953 57.471 306.537 58.056 306.537 58.776 C 306.537 58.945 306.505 59.109 306.442 59.264 L 301.842 73.390 C 301.765 73.626 301.623 73.834 301.433 73.992 L 301.071 74.291 C 301.358 74.350 301.619 74.510 301.813 74.749 L 301.859 74.838 L 302.129 75.807 L 299.525 80.418 C 299.292 80.823 298.857 81.073 298.393 81.073 Z" fill="#1A1D24" fill-rule="nonzero"/>
<path d="M 308.959 57.967 C 308.619 57.967 308.328 58.187 308.218 58.526 L 302.027 77.581 C 301.948 77.826 301.991 78.097 302.143 78.306 C 302.295 78.515 302.539 78.640 302.797 78.640 L 316.425 78.640 C 316.776 78.640 317.086 78.415 317.194 78.081 L 323.385 59.026 C 323.464 58.780 323.421 58.509 323.271 58.300 C 323.118 58.092 322.873 57.967 322.615 57.967 L 317.589 57.967 C 317.237 57.967 316.929 58.192 316.820 58.526 L 312.372 72.177 L 310.623 72.177 L 314.885 59.094 C 314.930 58.982 314.949 58.881 314.949 58.776 C 314.949 58.330 314.588 57.967 314.143 57.967 L 308.959 57.967 Z M 316.425 79.135 L 302.797 79.135 C 302.381 79.135 301.986 78.934 301.741 78.598 C 301.497 78.260 301.428 77.823 301.556 77.427 L 307.746 58.373 C 307.924 57.825 308.400 57.471 308.959 57.471 L 314.138 57.471 C 314.861 57.471 315.445 58.056 315.445 58.776 C 315.445 58.945 315.413 59.109 315.351 59.264 L 311.306 71.681 L 312.012 71.681 L 316.349 58.372 C 316.523 57.833 317.022 57.471 317.589 57.471 L 322.615 57.471 C 323.031 57.471 323.426 57.672 323.671 58.009 L 323.672 58.009 C 323.916 58.346 323.985 58.783 323.856 59.179 L 317.666 78.234 C 317.491 78.773 316.992 79.135 316.425 79.135 Z" fill="#1A1D24" fill-rule="nonzero"/>
<path d="M 277.037 70.294 L 276.413 72.176 L 270.251 72.214 C 269.897 72.214 269.588 72.440 269.479 72.775 L 267.918 77.620 C 267.839 77.864 267.883 78.135 268.035 78.344 C 268.186 78.552 268.431 78.676 268.688 78.676 L 277.213 78.640 C 277.393 78.640 277.571 78.578 277.714 78.466 L 283.257 74.107 C 283.385 74.007 283.477 73.873 283.527 73.718 L 285.814 66.614 C 285.893 66.368 285.850 66.098 285.698 65.889 C 285.547 65.681 285.302 65.557 285.045 65.557 L 278.571 65.557 L 278.984 64.295 L 285.986 64.295 C 286.339 64.295 286.647 64.070 286.756 63.737 L 288.267 59.094 C 288.312 58.982 288.332 58.880 288.332 58.776 C 288.332 58.330 287.971 57.967 287.525 57.967 L 278.996 57.967 C 278.830 57.967 278.670 58.017 278.534 58.112 L 273.206 61.863 C 273.060 61.964 272.951 62.111 272.897 62.278 L 270.637 69.275 C 270.558 69.521 270.600 69.792 270.753 70.000 C 270.904 70.209 271.149 70.334 271.407 70.334 L 277.037 70.294 Z M 268.689 79.172 C 268.272 79.172 267.878 78.972 267.634 78.635 C 267.389 78.300 267.319 77.863 267.446 77.467 L 269.008 72.623 C 269.183 72.082 269.682 71.718 270.249 71.718 L 276.055 71.683 L 276.349 70.794 L 271.409 70.829 C 270.991 70.829 270.597 70.628 270.351 70.292 C 270.106 69.956 270.037 69.519 270.165 69.123 L 272.426 62.126 C 272.513 61.856 272.688 61.619 272.921 61.457 L 278.249 57.706 C 278.471 57.552 278.728 57.471 278.996 57.471 L 287.520 57.471 C 288.244 57.471 288.828 58.056 288.828 58.776 C 288.828 58.945 288.796 59.109 288.733 59.264 L 287.227 63.890 C 287.052 64.429 286.554 64.791 285.986 64.791 L 279.344 64.791 L 279.255 65.061 L 285.045 65.061 C 285.460 65.061 285.854 65.261 286.100 65.597 C 286.344 65.933 286.414 66.370 286.286 66.766 L 283.999 73.871 C 283.919 74.120 283.768 74.336 283.563 74.497 L 278.019 78.857 C 277.790 79.037 277.504 79.135 277.214 79.135 L 268.689 79.172 Z" fill="#1A1D24" fill-rule="nonzero"/>
<path d="M 330.830 66.552 L 329.953 66.552 L 331.211 65.398 L 330.830 66.552 Z M 328.505 71.265 L 330.211 71.265 L 328.159 77.580 C 328.080 77.826 328.123 78.097 328.274 78.305 C 328.426 78.514 328.671 78.639 328.929 78.639 L 333.919 78.639 C 334.270 78.639 334.579 78.415 334.687 78.080 L 340.855 59.093 C 340.900 58.981 340.920 58.880 340.920 58.776 C 340.920 58.330 340.558 57.967 340.113 57.967 L 331.802 57.967 C 331.604 57.967 331.415 58.038 331.267 58.168 L 324.081 64.493 C 323.973 64.589 323.892 64.712 323.847 64.850 L 319.702 77.580 C 319.622 77.825 319.665 78.096 319.817 78.305 C 319.969 78.514 320.214 78.639 320.472 78.639 L 325.521 78.639 C 325.873 78.639 326.183 78.415 326.291 78.080 L 328.505 71.265 Z M 333.919 79.135 L 328.929 79.135 C 328.513 79.135 328.118 78.934 327.873 78.597 C 327.629 78.260 327.559 77.823 327.687 77.427 L 329.528 71.761 L 328.865 71.761 L 326.763 78.233 C 326.588 78.773 326.089 79.135 325.521 79.135 L 320.472 79.135 C 320.056 79.135 319.661 78.934 319.416 78.597 C 319.171 78.260 319.101 77.822 319.230 77.426 L 323.375 64.697 C 323.447 64.474 323.578 64.276 323.754 64.121 L 330.939 57.796 C 331.178 57.587 331.483 57.471 331.802 57.471 L 340.108 57.471 C 340.832 57.471 341.416 58.056 341.416 58.776 C 341.416 58.944 341.384 59.107 341.321 59.262 L 335.159 78.233 C 334.984 78.773 334.486 79.135 333.919 79.135 Z" fill="#1A1D24" fill-rule="nonzero"/>
<path d="M 346.375 71.843 L 347.088 72.413 L 348.973 66.657 L 348.308 65.914 L 346.375 71.843 Z M 347.337 73.248 L 345.797 72.015 L 348.104 64.942 L 349.532 66.540 L 347.337 73.248 Z M 344.226 58.536 C 343.874 58.536 343.564 58.761 343.456 59.096 L 337.266 77.582 C 337.187 77.826 337.229 78.097 337.381 78.305 C 337.532 78.514 337.777 78.639 338.035 78.639 L 351.466 78.639 C 351.817 78.639 352.127 78.415 352.235 78.080 L 356.838 64.463 C 356.925 64.196 356.863 63.896 356.676 63.682 L 352.396 58.811 C 352.243 58.636 352.021 58.536 351.789 58.536 L 344.226 58.536 Z M 351.466 79.135 L 338.035 79.135 C 337.618 79.135 337.225 78.934 336.979 78.597 C 336.734 78.260 336.666 77.823 336.794 77.427 L 342.984 58.940 C 343.160 58.403 343.659 58.040 344.226 58.040 L 351.789 58.040 C 352.164 58.040 352.521 58.202 352.769 58.484 L 357.049 63.355 C 357.351 63.699 357.450 64.184 357.309 64.619 L 352.706 78.236 C 352.532 78.773 352.033 79.135 351.466 79.135 Z" fill="#1A1D24" fill-rule="nonzero"/>
</g></svg>